<svg width="40" height="40" viewBox="0 0 40 40" fill="none" xmlns="http://www.w3.org/2000/svg">
<g clip-path="url(#clip0_287_114109)">
<g clip-path="url(#clip1_287_114109)">
<g clip-path="url(#clip2_287_114109)">
<path d="M19.1878 10.0438C19.1383 10.0513 19.0907 10.0686 19.0478 10.0946C19.005 10.1206 18.9677 10.1547 18.938 10.1951C18.9084 10.2355 18.887 10.2814 18.8751 10.3301C18.8632 10.3787 18.861 10.4293 18.8686 10.4788C18.8984 10.6723 18.9133 10.8248 18.8962 10.9138C18.8791 11.0031 18.827 11.1073 18.6771 11.2858C18.5272 11.4643 18.2461 11.7227 18.1002 12.1125C17.9545 12.5023 18.0089 12.8746 18.0427 13.1867C18.0481 13.2365 18.0632 13.2847 18.0872 13.3287C18.1113 13.3726 18.1437 13.4114 18.1827 13.4428C18.2217 13.4742 18.2665 13.4976 18.3146 13.5117C18.3626 13.5257 18.413 13.5302 18.4628 13.5248C18.5126 13.5194 18.5608 13.5043 18.6047 13.4803C18.6486 13.4563 18.6874 13.4238 18.7188 13.3848C18.7502 13.3458 18.7736 13.301 18.7877 13.253C18.8018 13.2049 18.8063 13.1546 18.8009 13.1048C18.7671 12.7926 18.754 12.5408 18.8143 12.3797C18.8745 12.2187 19.0729 12.0009 19.2611 11.7768C19.4493 11.5527 19.5933 11.3266 19.6449 11.0581C19.6966 10.7893 19.6519 10.5566 19.6221 10.363C19.6068 10.2631 19.5525 10.1733 19.471 10.1135C19.3896 10.0536 19.2877 10.0286 19.1878 10.0438Z" fill="#111019"/>
<path d="M14.2541 17.0548C14.2069 17.0381 14.1568 17.0309 14.1067 17.0336C14.0567 17.0363 14.0077 17.0489 13.9625 17.0706C13.9174 17.0923 13.877 17.1227 13.8436 17.16C13.8102 17.1974 13.7845 17.2409 13.768 17.2882C13.7514 17.3355 13.7444 17.3856 13.7472 17.4356C13.75 17.4856 13.7626 17.5345 13.7844 17.5797C14.218 18.4807 14.6496 19.3794 14.95 19.9211C15.2504 20.4628 15.4486 20.6691 15.5915 20.8085C15.664 20.8791 15.7614 20.9179 15.8625 20.9166C15.9636 20.9153 16.06 20.8738 16.1306 20.8014C16.2012 20.7291 16.2402 20.6317 16.239 20.5306C16.2379 20.4295 16.1966 20.333 16.1243 20.2624C15.9813 20.1229 15.8933 20.0493 15.6167 19.5507C15.3403 19.0522 14.9052 18.1496 14.4716 17.2487C14.4276 17.1578 14.3494 17.0881 14.2541 17.0548Z" fill="#111019"/>
<path d="M10.5706 24.0452C10.51 24.045 10.4519 24.0689 10.4089 24.1116C10.3659 24.1543 10.3416 24.2123 10.3413 24.2729C10.3412 24.303 10.3471 24.3328 10.3585 24.3606C10.37 24.3884 10.3868 24.4137 10.408 24.435C10.4293 24.4563 10.4545 24.4732 10.4823 24.4847C10.51 24.4963 10.5398 24.5022 10.5699 24.5023L26.9301 24.5306C26.9907 24.5308 27.0489 24.5069 27.0919 24.4642C27.1349 24.4215 27.1592 24.3635 27.1595 24.3029C27.1595 24.2728 27.1537 24.243 27.1422 24.2152C27.1308 24.1874 27.114 24.1621 27.0927 24.1408C27.0715 24.1195 27.0463 24.1026 27.0185 24.0911C26.9907 24.0795 26.961 24.0736 26.9309 24.0735L10.5706 24.0452Z" fill="#111019"/>
<path d="M14.7785 23.886C14.6978 23.8876 14.621 23.921 14.5649 23.979C13.3307 25.2612 12.0654 26.5297 11.6907 27.769C11.5033 28.3887 11.5718 28.9577 11.6726 29.454C11.7733 29.9503 11.8978 30.3831 11.8877 30.756C11.8675 31.5018 11.3077 32.3093 10.693 33.1518C10.6455 33.2171 10.6259 33.2986 10.6385 33.3784C10.651 33.4582 10.6947 33.5297 10.76 33.5774C10.8252 33.6249 10.9067 33.6446 10.9864 33.6322C11.0662 33.6198 11.1378 33.5763 11.1855 33.5112C11.8003 32.6686 12.4702 31.7909 12.4977 30.7725C12.5115 30.2632 12.3644 29.7936 12.2708 29.3326C12.1772 28.8717 12.1287 28.4283 12.2748 27.9456C12.5667 26.9801 13.7697 25.6844 15.004 24.4023C15.0601 24.344 15.0908 24.2659 15.0893 24.1851C15.0878 24.1042 15.0543 24.0273 14.9961 23.9712C14.9672 23.9434 14.9332 23.9216 14.8958 23.907C14.8585 23.8924 14.8186 23.8852 14.7785 23.886Z" fill="#111019"/>
<path fill-rule="evenodd" clip-rule="evenodd" d="M10.4635 33.9835C10.1035 33.7208 10.0245 33.2154 10.2872 32.8554C10.5499 32.4953 11.0553 32.4163 11.4153 32.679C11.7753 32.9417 11.8486 33.455 11.5916 33.8072C11.3289 34.1672 10.8236 34.2462 10.4635 33.9835Z" fill="#111019"/>
<path fill-rule="evenodd" clip-rule="evenodd" d="M10.7984 32.4282C10.5668 32.4644 10.3488 32.588 10.2003 32.7915C9.90325 33.1986 9.99258 33.7736 10.3997 34.0706C10.8067 34.3677 11.3817 34.2775 11.6788 33.8705C11.9708 33.4702 11.8869 32.8901 11.4786 32.5922C11.275 32.4436 11.0301 32.392 10.7984 32.4282ZM10.8315 32.6394C11.0083 32.6118 11.1952 32.6521 11.3517 32.7663C11.6634 32.9938 11.7265 33.4395 11.5046 33.7436C11.2762 34.0566 10.8395 34.1248 10.5265 33.8965C10.2135 33.6681 10.1461 33.2314 10.3744 32.9184C10.4886 32.7619 10.6548 32.6671 10.8315 32.6394Z" fill="#111019"/>
<path fill-rule="evenodd" clip-rule="evenodd" d="M12.1708 31.5712C11.7253 31.5591 11.3735 31.1877 11.3856 30.7422C11.3976 30.2967 11.769 29.9449 12.2145 29.957C12.66 29.969 13.0115 30.3501 12.9997 30.7859C12.9877 31.2314 12.6163 31.5832 12.1708 31.5712Z" fill="#111019"/>
<path fill-rule="evenodd" clip-rule="evenodd" d="M12.2178 29.8496C11.7141 29.8359 11.2921 30.2356 11.2784 30.7394C11.2648 31.2431 11.6644 31.6651 12.1682 31.6788C12.6719 31.6924 13.094 31.2927 13.1076 30.789C13.121 30.2937 12.7231 29.8633 12.2178 29.8496ZM12.2115 30.0647C12.5973 30.0752 12.9026 30.4064 12.8925 30.7827C12.882 31.17 12.561 31.4741 12.1737 31.4636C11.7864 31.4531 11.4831 31.1322 11.4936 30.7449C11.5041 30.3576 11.8242 30.0542 12.2115 30.0647Z" fill="#111019"/>
<path fill-rule="evenodd" clip-rule="evenodd" d="M11.7489 28.6301C11.3223 28.5011 11.0808 28.0502 11.2098 27.6236C11.3388 27.197 11.7896 26.9554 12.2163 27.0844C12.6429 27.2134 12.8816 27.6736 12.7554 28.0909C12.6265 28.5175 12.1755 28.7591 11.7489 28.6301Z" fill="#111019"/>
<path fill-rule="evenodd" clip-rule="evenodd" d="M12.2477 26.9817C11.7654 26.8358 11.2524 27.1101 11.1065 27.5924C10.9607 28.0748 11.235 28.587 11.7173 28.7328C12.1997 28.8787 12.7127 28.6044 12.8585 28.1221C13.0019 27.6477 12.7316 27.128 12.2477 26.9817ZM12.1847 27.1874C12.554 27.299 12.761 27.6994 12.652 28.0598C12.5399 28.4306 12.1512 28.6393 11.7804 28.5271C11.4095 28.415 11.2009 28.0256 11.313 27.6547C11.4252 27.2838 11.8138 27.0752 12.1847 27.1874Z" fill="#111019"/>
<path d="M24.8628 24.1501C24.8318 24.1755 24.806 24.2068 24.7871 24.2421C24.7682 24.2774 24.7564 24.3161 24.7525 24.356C24.7485 24.3959 24.7525 24.4362 24.7641 24.4746C24.7757 24.5129 24.7948 24.5486 24.8202 24.5796C25.5676 25.4929 26.2707 26.389 26.3964 27.1827C26.5222 27.9766 26.0823 28.8911 26.0938 29.9364C26.1053 30.9815 26.6116 31.9723 27.0868 32.9312C27.1046 32.9671 27.1293 32.9992 27.1595 33.0255C27.1896 33.0519 27.2247 33.0721 27.2627 33.0849C27.3007 33.0977 27.3409 33.1029 27.3809 33.1002C27.4209 33.0975 27.4599 33.0869 27.4958 33.0691C27.5682 33.0332 27.6234 32.97 27.6492 32.8935C27.6751 32.8169 27.6695 32.7333 27.6337 32.6608C27.1586 31.702 26.7131 30.7745 26.7038 29.9293C26.6945 29.0841 27.1648 28.1372 26.9985 27.0874C26.8322 26.0374 26.0397 25.1067 25.2923 24.1934C25.267 24.1624 25.2357 24.1366 25.2004 24.1176C25.1651 24.0986 25.1264 24.0867 25.0865 24.0827C25.0466 24.0787 25.0063 24.0826 24.9679 24.0941C24.9295 24.1057 24.8938 24.1247 24.8628 24.1501Z" fill="#111019"/>
<path fill-rule="evenodd" clip-rule="evenodd" d="M27.7185 33.5195C27.3192 33.7174 26.8345 33.5539 26.6366 33.1546C26.4387 32.7553 26.6021 32.2706 27.0015 32.0727C27.4008 31.8748 27.8898 32.0469 28.0834 32.4376C28.2813 32.8369 28.1178 33.3216 27.7185 33.5195Z" fill="#111019"/>
<path fill-rule="evenodd" clip-rule="evenodd" d="M27.6541 31.9326C27.4317 31.8567 27.18 31.8637 26.9535 31.976C26.502 32.1997 26.3168 32.7507 26.5405 33.2022C26.7643 33.6538 27.3145 33.8398 27.766 33.616C28.2176 33.3922 28.4036 32.8412 28.1798 32.3897C28.0698 32.1677 27.8766 32.0086 27.6541 31.9326ZM27.5848 32.1367C27.7551 32.1951 27.9031 32.3164 27.9867 32.4851C28.1587 32.8322 28.0178 33.2509 27.6707 33.4229C27.3235 33.595 26.9049 33.454 26.7328 33.1069C26.5608 32.7597 26.7025 32.3411 27.0496 32.169C27.2225 32.0834 27.4145 32.0784 27.5848 32.1367Z" fill="#111019"/>
<path fill-rule="evenodd" clip-rule="evenodd" d="M26.4079 30.7401C25.9622 30.745 25.5965 30.3873 25.5916 29.9417C25.5867 29.496 25.9444 29.1303 26.39 29.1254C26.8357 29.1205 27.2015 29.4879 27.2063 29.9238C27.2112 30.3695 26.8535 30.7352 26.4079 30.7401Z" fill="#111019"/>
<path fill-rule="evenodd" clip-rule="evenodd" d="M26.3892 29.0175C25.8853 29.0231 25.4781 29.4388 25.4837 29.9427C25.4893 30.4466 25.905 30.8531 26.4089 30.8475C26.9128 30.8419 27.3192 30.4269 27.3137 29.923C27.3082 29.4275 26.8947 29.0119 26.3892 29.0175ZM26.3916 29.2335C26.7775 29.2292 27.0944 29.549 27.0986 29.9254C27.1029 30.3128 26.794 30.6281 26.4066 30.6323C26.0192 30.6366 25.704 30.3278 25.6997 29.9404C25.6954 29.553 26.0042 29.2377 26.3916 29.2335Z" fill="#111019"/>
<path fill-rule="evenodd" clip-rule="evenodd" d="M26.8237 27.9326C26.3835 28.0023 25.9697 27.7017 25.8999 27.2615C25.8302 26.8213 26.1309 26.4074 26.5711 26.3377C27.0113 26.268 27.4266 26.5782 27.4948 27.0088C27.5646 27.449 27.2639 27.8629 26.8237 27.9326Z" fill="#111019"/>
<path fill-rule="evenodd" clip-rule="evenodd" d="M26.5538 26.2315C26.0561 26.3104 25.7144 26.7804 25.7933 27.2781C25.8721 27.7758 26.343 28.1175 26.8407 28.0386C27.3384 27.9598 27.6801 27.4897 27.6012 26.992C27.5237 26.5026 27.0531 26.1524 26.5538 26.2315ZM26.5877 26.4443C26.9688 26.3839 27.3295 26.6541 27.3884 27.0259C27.449 27.4086 27.1895 27.7652 26.8068 27.8258C26.4241 27.8865 26.0667 27.6269 26.0061 27.2442C25.9455 26.8616 26.205 26.5049 26.5877 26.4443Z" fill="#111019"/>
<path d="M19.3562 23.9971C19.3162 23.9994 19.277 24.0096 19.2409 24.027C19.2048 24.0444 19.1725 24.0688 19.1458 24.0988C19.1192 24.1288 19.0987 24.1637 19.0856 24.2016C19.0725 24.2396 19.067 24.2797 19.0694 24.3197C19.0718 24.3598 19.0821 24.3989 19.0997 24.435C19.1173 24.4711 19.1418 24.5033 19.1719 24.5299C19.8096 25.0951 20.372 25.6313 20.4596 26.1849C20.5473 26.7387 20.1564 27.5944 20.1365 28.587C20.1166 29.5796 20.4949 30.5334 20.4935 31.4494C20.4919 32.3656 20.1313 33.3653 19.7519 34.3922C19.7239 34.4681 19.7272 34.552 19.761 34.6254C19.7949 34.6989 19.8565 34.7559 19.9324 34.7839C20.0083 34.8119 20.0921 34.8086 20.1656 34.7748C20.239 34.7409 20.296 34.6793 20.3241 34.6034C20.7035 33.5765 21.1018 32.5217 21.1035 31.451C21.1051 30.3802 20.7302 29.4141 20.7465 28.5996C20.7628 27.7853 21.1983 26.9472 21.0625 26.0895C20.9267 25.2317 20.2147 24.6388 19.5769 24.0736C19.547 24.047 19.5121 24.0265 19.4742 24.0134C19.4364 24.0003 19.3962 23.9947 19.3562 23.9971Z" fill="#111019"/>
<path fill-rule="evenodd" clip-rule="evenodd" d="M19.7582 35.2551C19.3401 35.1007 19.1262 34.636 19.2807 34.2179C19.4351 33.7999 19.8998 33.5859 20.3178 33.7404C20.7359 33.8948 20.9465 34.3686 20.7954 34.7775C20.6409 35.1956 20.1763 35.4096 19.7582 35.2551Z" fill="#111019"/>
<path fill-rule="evenodd" clip-rule="evenodd" d="M20.3555 33.6396C19.8828 33.4649 19.3543 33.7075 19.1796 34.1802C19.005 34.6529 19.2483 35.1814 19.721 35.356C20.1937 35.5307 20.7215 35.2873 20.8961 34.8146C21.0678 34.3498 20.8296 33.8147 20.3555 33.6396ZM20.2806 33.8413C20.6426 33.975 20.8248 34.3874 20.6944 34.7405C20.5601 35.104 20.1593 35.2886 19.7959 35.1543C19.4325 35.02 19.2471 34.6185 19.3814 34.2551C19.5156 33.8916 19.9172 33.707 20.2806 33.8413Z" fill="#111019"/>
<path fill-rule="evenodd" clip-rule="evenodd" d="M20.7971 32.2576C20.3514 32.2568 19.9903 31.8946 19.991 31.449C19.9918 31.0033 20.3539 30.6421 20.7996 30.6428C21.2453 30.6436 21.6064 31.0155 21.6057 31.4515C21.6049 31.8971 21.2428 32.2583 20.7971 32.2576Z" fill="#111019"/>
<path fill-rule="evenodd" clip-rule="evenodd" d="M20.7999 30.5353C20.2959 30.5345 19.8842 30.9448 19.8833 31.4487C19.8825 31.9526 20.2928 32.3643 20.7967 32.3653C21.3006 32.3661 21.7124 31.9557 21.7133 31.4518C21.7141 30.9563 21.3053 30.5362 20.7999 30.5353ZM20.7991 30.7504C21.185 30.7512 21.4987 31.0746 21.4981 31.4511C21.4973 31.8385 21.1849 32.1507 20.7975 32.1501C20.41 32.1493 20.0978 31.8369 20.0984 31.4495C20.0992 31.062 20.4116 30.7498 20.7991 30.7504Z" fill="#111019"/>
<path fill-rule="evenodd" clip-rule="evenodd" d="M20.425 29.4005C19.9794 29.3916 19.625 29.0227 19.634 28.5771C19.6429 28.1315 20.0118 27.7771 20.4574 27.7861C20.903 27.795 21.2572 28.1736 21.2484 28.6095C21.2395 29.0551 20.8706 29.4095 20.425 29.4005Z" fill="#111019"/>
<path fill-rule="evenodd" clip-rule="evenodd" d="M20.4594 27.6784C19.9556 27.6683 19.5364 28.0714 19.5263 28.5753C19.5162 29.0791 19.9186 29.4983 20.4224 29.5084C20.9262 29.5185 21.3462 29.1153 21.3563 28.6115C21.3662 28.1161 20.9648 27.6886 20.4594 27.6784ZM20.4554 27.8936C20.8412 27.9013 21.1478 28.2312 21.1402 28.6076C21.1325 28.9949 20.8144 29.301 20.427 29.2932C20.0397 29.2854 19.7336 28.9666 19.7414 28.5792C19.7492 28.1919 20.068 27.8858 20.4554 27.8936Z" fill="#111019"/>
<path fill-rule="evenodd" clip-rule="evenodd" d="M20.8874 26.9348C20.4472 27.0045 20.0333 26.7038 19.9636 26.2636C19.894 25.8234 20.1947 25.4096 20.6349 25.3399C21.0751 25.2702 21.4904 25.5805 21.5586 26.0111C21.6283 26.4513 21.3276 26.8651 20.8874 26.9348Z" fill="#111019"/>
<path fill-rule="evenodd" clip-rule="evenodd" d="M20.618 25.2337C20.1203 25.3125 19.7787 25.7826 19.8575 26.2803C19.9363 26.778 20.4064 27.1196 20.9041 27.0408C21.4018 26.962 21.7434 26.4919 21.6646 25.9942C21.5871 25.5048 21.1173 25.1546 20.618 25.2337ZM20.6519 25.4465C21.033 25.3861 21.393 25.6563 21.4518 26.0281C21.5124 26.4108 21.2529 26.7682 20.8702 26.8288C20.4875 26.8894 20.1309 26.6291 20.0703 26.2464C20.0097 25.8637 20.2692 25.5071 20.6519 25.4465Z" fill="#111019"/>
<path d="M16.8258 24.0815C15.9917 24.6797 15.0501 25.3427 14.9099 26.5239C14.7697 27.705 15.3774 29.1505 15.4474 30.54C15.5173 31.9297 15.0924 33.3494 14.6514 34.8013C14.6397 34.8397 14.6357 34.8799 14.6396 34.9198C14.6435 34.9597 14.6553 34.9984 14.6742 35.0338C14.693 35.0691 14.7187 35.1004 14.7497 35.1259C14.7807 35.1513 14.8164 35.1704 14.8547 35.182C14.8931 35.1936 14.9333 35.1976 14.9732 35.1937C15.0131 35.1898 15.0518 35.1781 15.0872 35.1592C15.1225 35.1403 15.1538 35.1147 15.1792 35.0837C15.2047 35.0527 15.2237 35.017 15.2354 34.9786C15.6764 33.5267 16.1337 32.0415 16.0566 30.5093C15.9794 28.9771 15.4106 27.483 15.5159 26.5956C15.6213 25.7082 16.3471 25.1754 17.1812 24.5772C17.2469 24.5301 17.2912 24.4588 17.3044 24.379C17.3175 24.2992 17.2985 24.2174 17.2513 24.1517C17.2042 24.0859 17.1329 24.0416 17.0531 24.0285C16.9733 24.0153 16.8915 24.0344 16.8258 24.0815Z" fill="#111019"/>
<path fill-rule="evenodd" clip-rule="evenodd" d="M14.7087 35.6625C14.2822 35.533 14.0412 35.0818 14.1708 34.6553C14.3003 34.2289 14.7515 33.9879 15.178 34.1174C15.6044 34.2469 15.8426 34.7074 15.7158 35.1246C15.5863 35.551 15.1351 35.792 14.7087 35.6625Z" fill="#111019"/>
<path fill-rule="evenodd" clip-rule="evenodd" d="M15.2092 34.0148C14.7271 33.8684 14.2145 34.1419 14.0681 34.6241C13.9216 35.1062 14.1951 35.6188 14.6773 35.7652C15.1595 35.9117 15.672 35.6382 15.8185 35.156C15.9625 34.6819 15.6929 34.1618 15.2092 34.0148ZM15.147 34.2205C15.5162 34.3327 15.7222 34.7336 15.6128 35.0938C15.5002 35.4645 15.1102 35.6721 14.7395 35.5595C14.3688 35.4469 14.1612 35.057 14.2738 34.6863C14.3864 34.3156 14.7763 34.1079 15.147 34.2205Z" fill="#111019"/>
<path fill-rule="evenodd" clip-rule="evenodd" d="M15.7923 31.3314C15.3472 31.3538 14.9678 31.0107 14.9454 30.5656C14.923 30.1205 15.266 29.7411 15.7111 29.7187C16.1563 29.6963 16.5362 30.049 16.5581 30.4844C16.5805 30.9296 16.2375 31.309 15.7923 31.3314Z" fill="#111019"/>
<path fill-rule="evenodd" clip-rule="evenodd" d="M15.7058 29.6109C15.2025 29.6362 14.8128 30.0675 14.8381 30.5708C14.8634 31.0741 15.2947 31.4638 15.798 31.4385C16.3013 31.4132 16.691 30.9827 16.6657 30.4794C16.6408 29.9845 16.2106 29.5855 15.7058 29.6109ZM15.7168 29.826C16.1022 29.8067 16.4316 30.1137 16.4505 30.4896C16.47 30.8766 16.1739 31.2047 15.7869 31.2241C15.4 31.2436 15.0727 30.9475 15.0532 30.5606C15.0337 30.1736 15.3299 29.8455 15.7168 29.826Z" fill="#111019"/>
<path fill-rule="evenodd" clip-rule="evenodd" d="M15.1176 27.3617C14.675 27.3091 14.3584 26.9073 14.411 26.4647C14.4635 26.0222 14.8653 25.7056 15.3079 25.7581C15.7505 25.8107 16.0659 26.2221 16.0145 26.6551C15.962 27.0977 15.5601 27.4142 15.1176 27.3617Z" fill="#111019"/>
<path fill-rule="evenodd" clip-rule="evenodd" d="M15.3204 25.6514C14.82 25.592 14.3632 25.9517 14.3038 26.4522C14.2444 26.9526 14.6041 27.4094 15.1045 27.4688C15.6049 27.5282 16.0617 27.1685 16.1212 26.6681C16.1796 26.176 15.8224 25.711 15.3204 25.6514ZM15.2952 25.865C15.6784 25.9105 15.9519 26.2683 15.9076 26.6421C15.8619 27.0268 15.5152 27.3001 15.1305 27.2544C14.7458 27.2088 14.4725 26.8621 14.5181 26.4774C14.5638 26.0926 14.9105 25.8193 15.2952 25.865Z" fill="#111019"/>
<path d="M26.9656 26.8604C26.9425 26.8411 26.9158 26.8266 26.8872 26.8176C26.8585 26.8087 26.8283 26.8055 26.7984 26.8082C26.7684 26.8109 26.7393 26.8195 26.7127 26.8334C26.6861 26.8474 26.6625 26.8665 26.6432 26.8896C26.624 26.9126 26.6094 26.9393 26.6005 26.968C26.5915 26.9967 26.5883 27.0268 26.591 27.0568C26.5937 27.0867 26.6023 27.1158 26.6163 27.1424C26.6303 27.1691 26.6493 27.1927 26.6724 27.2119C27.4276 27.8418 28.164 28.465 28.552 29.1144C28.9401 29.7638 29.0238 30.4963 29.1077 31.2691C29.1143 31.3294 29.1445 31.3846 29.1918 31.4226C29.2391 31.4605 29.2996 31.4782 29.3599 31.4716C29.4201 31.465 29.4754 31.4347 29.5133 31.3874C29.5513 31.3402 29.569 31.2797 29.5624 31.2194C29.4786 30.4466 29.3947 29.633 28.9445 28.8795C28.4943 28.126 27.7207 27.4903 26.9656 26.8604Z" fill="#111019"/>
<path fill-rule="evenodd" clip-rule="evenodd" d="M29.4004 31.8464C29.0681 31.8825 28.7691 31.642 28.7331 31.3097C28.697 30.9774 28.9375 30.6785 29.2698 30.6424C29.6021 30.6063 29.9018 30.854 29.9371 31.1791C29.9732 31.5114 29.7327 31.8104 29.4004 31.8464Z" fill="#111019"/>
<path fill-rule="evenodd" clip-rule="evenodd" d="M29.2606 30.5621C28.8848 30.6028 28.6122 30.9429 28.653 31.3187C28.6937 31.6944 29.033 31.9679 29.4088 31.9271C29.7845 31.8863 30.058 31.5462 30.0172 31.1705C29.9771 30.801 29.6375 30.5212 29.2606 30.5621ZM29.2787 30.7229C29.5664 30.6916 29.8259 30.9071 29.8564 31.1878C29.8877 31.4767 29.6803 31.735 29.3914 31.7663C29.1025 31.7977 28.8443 31.5902 28.8129 31.3013C28.7816 31.0124 28.9898 30.7542 29.2787 30.7229Z" fill="#111019"/>
<path fill-rule="evenodd" clip-rule="evenodd" d="M29.0587 29.5168C28.7718 29.6883 28.3998 29.5945 28.2283 29.3076C28.0569 29.0206 28.1506 28.6486 28.4376 28.4772C28.7245 28.3057 29.1003 28.4057 29.268 28.6864C29.4394 28.9733 29.3457 29.3454 29.0587 29.5168Z" fill="#111019"/>
<path fill-rule="evenodd" clip-rule="evenodd" d="M28.9169 28.3342C28.7462 28.2905 28.5587 28.3102 28.396 28.4075C28.0716 28.6013 27.9649 29.0248 28.1588 29.3492C28.3526 29.6737 28.7753 29.7803 29.0998 29.5865C29.4242 29.3926 29.5308 28.9691 29.337 28.6447C29.2417 28.4852 29.0877 28.3779 28.9169 28.3342ZM28.8776 28.4902C29.0083 28.5238 29.1259 28.6062 29.1983 28.7274C29.3474 28.9769 29.2665 29.2987 29.0171 29.4478C28.7676 29.5968 28.4466 29.5159 28.2975 29.2665C28.1485 29.017 28.2293 28.6952 28.4788 28.5462C28.603 28.4719 28.7468 28.4566 28.8776 28.4902Z" fill="#111019"/>
<path d="M26.3453 29.7748C26.286 29.7633 26.2245 29.7758 26.1743 29.8095C25.3358 30.3742 24.4499 30.9521 24.0819 31.857C23.7139 32.7618 23.9135 33.8578 24.0897 34.9203C24.0997 34.9801 24.1329 35.0334 24.1821 35.0687C24.2312 35.1041 24.2924 35.1184 24.3522 35.1087C24.3818 35.1038 24.4103 35.0931 24.4358 35.0772C24.4613 35.0613 24.4834 35.0406 24.5009 35.0161C24.5184 34.9917 24.5309 34.964 24.5377 34.9347C24.5445 34.9054 24.5455 34.8751 24.5406 34.8455C24.3643 33.7829 24.2108 32.7531 24.5051 32.0296C24.7993 31.306 25.5911 30.7541 26.4296 30.1893C26.4799 30.1554 26.5146 30.1028 26.5261 30.0433C26.5377 29.9837 26.5251 29.922 26.4911 29.8717C26.4573 29.8214 26.4049 29.7865 26.3453 29.7748Z" fill="#111019"/>
<path fill-rule="evenodd" clip-rule="evenodd" d="M24.4142 35.4803C24.0845 35.535 23.7724 35.3118 23.7177 34.982C23.663 34.6523 23.8862 34.3402 24.216 34.2855C24.5457 34.2308 24.859 34.4612 24.9125 34.7838C24.9672 35.1135 24.744 35.4256 24.4142 35.4803Z" fill="#111019"/>
<path fill-rule="evenodd" clip-rule="evenodd" d="M24.2025 34.2056C23.8296 34.2674 23.5763 34.6224 23.6382 34.9952C23.7001 35.3681 24.0543 35.6222 24.4271 35.5603C24.8 35.4985 25.054 35.1435 24.9922 34.7706C24.9313 34.404 24.5765 34.1435 24.2025 34.2056ZM24.2293 34.3656C24.5148 34.3182 24.7868 34.5181 24.833 34.7966C24.8805 35.0833 24.6877 35.3528 24.4011 35.4003C24.1144 35.4479 23.845 35.2551 23.7974 34.9685C23.7498 34.6818 23.9426 34.4131 24.2293 34.3656Z" fill="#111019"/>
<path fill-rule="evenodd" clip-rule="evenodd" d="M24.0653 32.5041C23.7556 32.3782 23.6065 32.0247 23.7325 31.7151C23.8584 31.4054 24.2119 31.2563 24.5215 31.3822C24.8312 31.5082 24.9775 31.8684 24.8543 32.1713C24.7284 32.4809 24.3749 32.63 24.0653 32.5041Z" fill="#111019"/>
<path fill-rule="evenodd" clip-rule="evenodd" d="M24.5524 31.3077C24.2023 31.1653 23.8003 31.3343 23.6579 31.6844C23.5155 32.0345 23.6846 32.4365 24.0346 32.5789C24.3848 32.7213 24.7868 32.5515 24.9291 32.2014C25.0692 31.8571 24.9036 31.4505 24.5524 31.3077ZM24.491 31.4567C24.759 31.5657 24.8858 31.8792 24.7794 32.1407C24.6699 32.4099 24.3653 32.5387 24.0961 32.4292C23.8269 32.3197 23.6982 32.0143 23.8077 31.7451C23.9171 31.4759 24.2218 31.3472 24.491 31.4567Z" fill="#111019"/>
<path d="M20.3132 25.7585C20.2836 25.7528 20.2533 25.753 20.2238 25.7591C20.1943 25.7652 20.1663 25.7771 20.1414 25.794C20.0913 25.8281 20.0567 25.8807 20.0453 25.9402C20.0339 25.9998 20.0467 26.0614 20.0807 26.1116C20.9574 27.4075 21.8337 28.7027 22.7098 29.9977C22.7438 30.048 22.7963 30.0827 22.8559 30.0942C22.9155 30.1058 22.9772 30.0932 23.0274 30.0592C23.0776 30.0251 23.1121 29.9725 23.1235 29.913C23.1349 29.8534 23.1222 29.7918 23.0881 29.7416C22.212 28.4466 21.3357 27.1514 20.459 25.8554C20.4252 25.8051 20.3727 25.7702 20.3132 25.7585Z" fill="#111019"/>
<path fill-rule="evenodd" clip-rule="evenodd" d="M23.2383 30.3712C22.9614 30.5585 22.5847 30.4859 22.3974 30.209C22.2101 29.9321 22.2828 29.5554 22.5597 29.3681C22.8365 29.1808 23.2173 29.2595 23.4005 29.5304C23.5878 29.8072 23.5152 30.1839 23.2383 30.3712Z" fill="#111019"/>
<path fill-rule="evenodd" clip-rule="evenodd" d="M23.0305 29.1979C22.8575 29.1638 22.6713 29.195 22.5143 29.3011C22.2012 29.5129 22.1189 29.9409 22.3306 30.2539C22.5424 30.5669 22.9704 30.6501 23.2835 30.4383C23.5965 30.2265 23.6789 29.7985 23.4671 29.4855C23.363 29.3316 23.2034 29.2319 23.0305 29.1979ZM22.9997 29.357C23.1322 29.3832 23.2548 29.4584 23.3339 29.5754C23.4967 29.816 23.4335 30.1415 23.1928 30.3043C22.9522 30.4672 22.6274 30.4047 22.4646 30.1641C22.3018 29.9234 22.3642 29.5979 22.6049 29.4351C22.7247 29.354 22.8673 29.3309 22.9997 29.357Z" fill="#111019"/>
<path d="M20.0032 28.4381C19.9438 28.426 19.8821 28.4379 19.8314 28.4712C19.123 28.9371 18.3709 29.4251 17.9156 30.2736C17.4602 31.1221 17.3304 32.2503 17.1936 33.359C17.1899 33.3889 17.1921 33.4192 17.2002 33.4482C17.2082 33.4772 17.2218 33.5044 17.2403 33.5281C17.2589 33.5518 17.2819 33.5717 17.3081 33.5865C17.3343 33.6013 17.3632 33.6108 17.393 33.6144C17.4531 33.6217 17.5136 33.6049 17.5613 33.5677C17.609 33.5304 17.6401 33.4758 17.6476 33.4158C17.7844 32.307 17.9289 31.2174 18.3191 30.4903C18.7092 29.7633 19.3744 29.3194 20.0828 28.8534C20.1335 28.8201 20.1689 28.768 20.1812 28.7086C20.1934 28.6492 20.1816 28.5873 20.1483 28.5366C20.1317 28.5115 20.1104 28.4898 20.0855 28.4729C20.0607 28.456 20.0327 28.4442 20.0032 28.4381Z" fill="#111019"/>
<path fill-rule="evenodd" clip-rule="evenodd" d="M17.3469 33.9884C17.0151 33.9475 16.7791 33.6451 16.82 33.3133C16.861 32.9816 17.1634 32.7455 17.4952 32.7865C17.8269 32.8274 18.0621 33.1371 18.022 33.4616C17.9811 33.7934 17.6786 34.0294 17.3469 33.9884Z" fill="#111019"/>
<path fill-rule="evenodd" clip-rule="evenodd" d="M17.5051 32.7065C17.13 32.6602 16.7861 32.928 16.7398 33.3031C16.6935 33.6782 16.9621 34.0221 17.3372 34.0683C17.7123 34.1146 18.0562 33.8468 18.1024 33.4717C18.148 33.1029 17.8813 32.7529 17.5051 32.7065ZM17.4854 32.8665C17.7726 32.9019 17.9762 33.1718 17.9417 33.452C17.9061 33.7404 17.6453 33.9439 17.3569 33.9084C17.0685 33.8728 16.8642 33.6112 16.8998 33.3228C16.9354 33.0344 17.197 32.8309 17.4854 32.8665Z" fill="#111019"/>
<path fill-rule="evenodd" clip-rule="evenodd" d="M17.8312 30.9154C17.5367 30.7573 17.4259 30.39 17.584 30.0955C17.7421 29.801 18.1094 29.6902 18.4039 29.8483C18.6984 30.0063 18.8057 30.3801 18.6511 30.6682C18.493 30.9627 18.1257 31.0735 17.8312 30.9154Z" fill="#111019"/>
<path fill-rule="evenodd" clip-rule="evenodd" d="M17.9197 29.7251C17.7513 29.7759 17.6024 29.8912 17.513 30.0577C17.3343 30.3907 17.4598 30.8081 17.7928 30.9869C18.1258 31.1656 18.5433 31.0393 18.722 30.7063C18.8977 30.3788 18.7763 29.9564 18.4422 29.7771C18.2757 29.6878 18.088 29.6743 17.9197 29.7251ZM17.9662 29.8788C18.0947 29.84 18.2377 29.8511 18.3658 29.9198C18.6208 30.0566 18.7136 30.3811 18.5801 30.6298C18.4427 30.8859 18.1253 30.9816 17.8693 30.8442C17.6132 30.7068 17.5175 30.3894 17.6549 30.1333C17.7236 30.0053 17.8377 29.9175 17.9662 29.8788Z" fill="#111019"/>
<path d="M20.1105 31.3148C20.0509 31.3259 19.9982 31.3602 19.9639 31.4101C19.9469 31.4349 19.9348 31.4628 19.9286 31.4922C19.9223 31.5216 19.9219 31.552 19.9274 31.5816C19.9329 31.6111 19.9442 31.6393 19.9606 31.6646C19.977 31.6898 19.9982 31.7115 20.023 31.7285C20.7319 32.2151 21.3897 32.6849 21.6181 33.3039C21.8466 33.9231 21.689 34.833 21.507 35.7715C21.4955 35.8311 21.5082 35.8928 21.5422 35.943C21.5762 35.9933 21.6287 36.0279 21.6883 36.0394C21.7478 36.0509 21.8095 36.0383 21.8598 36.0043C21.91 35.9703 21.9447 35.9177 21.9562 35.8582C22.1382 34.9197 22.3442 33.9514 22.0469 33.1455C21.7495 32.3395 20.9911 31.8376 20.2823 31.351C20.2575 31.3339 20.2295 31.322 20.2 31.3157C20.1705 31.3095 20.1401 31.3092 20.1105 31.3148Z" fill="#111019"/>
<path fill-rule="evenodd" clip-rule="evenodd" d="M21.6161 36.4092C21.2879 36.3456 21.0733 36.0276 21.1369 35.6995C21.2005 35.3713 21.5185 35.1566 21.8466 35.2203C22.1748 35.2839 22.3881 35.609 22.3258 35.93C22.2622 36.2582 21.9442 36.4728 21.6161 36.4092Z" fill="#111019"/>
<path fill-rule="evenodd" clip-rule="evenodd" d="M21.8624 35.141C21.4914 35.0691 21.1297 35.313 21.0578 35.684C20.9858 36.055 21.2297 36.4167 21.6008 36.4887C21.9718 36.5606 22.3335 36.3167 22.4054 35.9457C22.4762 35.5808 22.2346 35.2132 21.8624 35.141ZM21.8317 35.2994C22.1158 35.3545 22.3007 35.6378 22.247 35.9149C22.1917 36.2002 21.9167 36.3856 21.6315 36.3303C21.3462 36.2749 21.1608 36 21.2162 35.7147C21.2715 35.4295 21.5464 35.2441 21.8317 35.2994Z" fill="#111019"/>
<path fill-rule="evenodd" clip-rule="evenodd" d="M22.0421 33.793C21.7285 33.9087 21.3801 33.7481 21.2644 33.4345C21.1487 33.1209 21.3093 32.7725 21.6229 32.6568C21.9365 32.5411 22.2874 32.7085 22.4006 33.0153C22.5163 33.3289 22.3557 33.6773 22.0421 33.793Z" fill="#111019"/>
<path fill-rule="evenodd" clip-rule="evenodd" d="M21.5952 32.5812C21.2406 32.712 21.0577 33.1077 21.1885 33.4623C21.3194 33.8169 21.7159 33.9998 22.0704 33.869C22.425 33.7381 22.6071 33.3417 22.4763 32.9871C22.3477 32.6384 21.9509 32.45 21.5952 32.5812ZM21.6512 32.7325C21.9227 32.6323 22.2273 32.7782 22.325 33.043C22.4256 33.3157 22.2871 33.6171 22.0145 33.7177C21.7419 33.8182 21.4404 33.679 21.3399 33.4064C21.2393 33.1337 21.3786 32.8331 21.6512 32.7325Z" fill="#111019"/>
<path d="M14.6631 26.3473C14.6085 26.3211 14.5458 26.3175 14.4886 26.3375C14.4314 26.3574 14.3845 26.3992 14.3581 26.4537C14.345 26.4808 14.3373 26.5101 14.3356 26.5402C14.3338 26.5702 14.338 26.6003 14.3479 26.6287C14.3578 26.6571 14.3732 26.6832 14.3932 26.7057C14.4132 26.7281 14.4374 26.7464 14.4645 26.7595C15.4655 27.2406 16.4664 27.7211 17.4664 28.2017C17.5211 28.2279 17.5839 28.2313 17.6411 28.2112C17.6982 28.1911 17.7451 28.1492 17.7714 28.0945C17.7976 28.04 17.8012 27.9772 17.7812 27.92C17.7613 27.8629 17.7195 27.8159 17.665 27.7895C16.665 27.3089 15.6641 26.8284 14.6631 26.3473Z" fill="#111019"/>
<path fill-rule="evenodd" clip-rule="evenodd" d="M18.1114 28.2579C17.9666 28.5592 17.6045 28.6862 17.3033 28.5414C17.002 28.3966 16.875 28.0346 17.0198 27.7333C17.1646 27.432 17.5332 27.3082 17.8279 27.4498C18.1292 27.5946 18.2562 27.9566 18.1114 28.2579Z" fill="#111019"/>
<path fill-rule="evenodd" clip-rule="evenodd" d="M17.3412 27.349C17.1746 27.4067 17.0292 27.5273 16.9471 27.6981C16.7834 28.0388 16.928 28.4502 17.2686 28.6139C17.6093 28.7776 18.0207 28.6338 18.1844 28.2931C18.3481 27.9525 18.2035 27.5411 17.8629 27.3774C17.6954 27.2969 17.5077 27.2912 17.3412 27.349ZM17.394 27.5019C17.5216 27.4578 17.6655 27.4612 17.7927 27.5224C18.0546 27.6482 18.1645 27.9611 18.0386 28.223C17.9128 28.4849 17.5999 28.5948 17.338 28.4689C17.0761 28.343 16.967 28.0302 17.0929 27.7683C17.1556 27.6378 17.2664 27.546 17.394 27.5019Z" fill="#111019"/>
<path d="M11.0694 27.6075C10.0407 28.1663 8.99608 28.7218 8.37177 29.4256C7.74747 30.1294 7.61281 30.9346 7.48594 31.678C7.47572 31.7378 7.48965 31.7992 7.52468 31.8487C7.5597 31.8982 7.61295 31.9318 7.67272 31.942C7.7325 31.9523 7.79389 31.9383 7.84339 31.9033C7.8929 31.8683 7.92647 31.815 7.93673 31.7553C8.06361 31.0118 8.18214 30.3284 8.71381 29.729C9.24545 29.1297 10.259 28.5683 11.2878 28.0094C11.3142 27.995 11.3375 27.9756 11.3563 27.9522C11.3752 27.9288 11.3893 27.9019 11.3978 27.8731C11.4063 27.8442 11.409 27.814 11.4058 27.7841C11.4026 27.7542 11.3936 27.7253 11.3792 27.6989C11.3501 27.6458 11.3013 27.6063 11.2432 27.5892C11.1851 27.5721 11.1227 27.5786 11.0694 27.6075Z" fill="#111019"/>
<path fill-rule="evenodd" clip-rule="evenodd" d="M7.60921 32.3133C7.27971 32.257 7.05795 31.944 7.11418 31.6145C7.17041 31.285 7.48346 31.0632 7.81296 31.1194C8.14246 31.1757 8.36302 31.4959 8.30801 31.8182C8.25178 32.1477 7.93871 32.3695 7.60921 32.3133Z" fill="#111019"/>
<path fill-rule="evenodd" clip-rule="evenodd" d="M7.82651 31.0396C7.45396 30.976 7.09805 31.2282 7.03447 31.6007C6.97089 31.9733 7.22304 32.3292 7.5956 32.3928C7.96816 32.4563 8.32407 32.2042 8.38764 31.8316C8.45016 31.4653 8.20023 31.1034 7.82651 31.0396ZM7.79972 31.1988C8.085 31.2475 8.27594 31.5265 8.22845 31.8048C8.17957 32.0913 7.90962 32.2825 7.62318 32.2336C7.33675 32.1847 7.14479 31.9147 7.19367 31.6283C7.24255 31.3419 7.51328 31.1499 7.79972 31.1988Z" fill="#111019"/>
<path fill-rule="evenodd" clip-rule="evenodd" d="M8.14136 30.0305C7.89131 29.8087 7.86839 29.4257 8.09021 29.1757C8.31202 28.9256 8.69497 28.9027 8.94503 29.1245C9.19508 29.3463 9.2132 29.7347 8.99621 29.9793C8.77439 30.2294 8.39142 30.2523 8.14136 30.0305Z" fill="#111019"/>
<path fill-rule="evenodd" clip-rule="evenodd" d="M8.50202 28.8928C8.32651 28.9033 8.15535 28.9808 8.02995 29.1222C7.77914 29.4049 7.80474 29.84 8.08748 30.0908C8.37022 30.3416 8.80604 30.316 9.05685 30.0332C9.30347 29.7552 9.28214 29.3154 8.99853 29.0639C8.85716 28.9385 8.67753 28.8823 8.50202 28.8928ZM8.51145 29.0536C8.64539 29.0456 8.78263 29.0888 8.89132 29.1852C9.10782 29.3773 9.12281 29.7148 8.93545 29.926C8.74263 30.1434 8.41201 30.163 8.19463 29.9702C7.97726 29.7774 7.95768 29.4467 8.1505 29.2294C8.24691 29.1207 8.37751 29.0616 8.51145 29.0536Z" fill="#111019"/>
<path d="M18.2886 21.0267C18.2487 21.057 18.2151 21.0948 18.1898 21.1381C18.1646 21.1813 18.148 21.2291 18.1412 21.2787C18.1344 21.3283 18.1375 21.3788 18.1502 21.4273C18.1629 21.4757 18.185 21.5212 18.2153 21.5611C18.4288 21.8419 18.6445 22.1262 18.8434 22.3515C19.0423 22.5768 19.3348 22.8058 19.8112 22.8922C20.0493 22.9353 20.32 22.9567 20.5662 22.9907C20.8124 23.0247 21.0353 23.0842 21.0998 23.1207C21.1644 23.1574 21.1921 23.2095 21.2999 23.3603C21.4077 23.5111 21.6184 23.7274 21.9383 23.8182C22.2579 23.9089 22.6206 23.9107 22.9983 23.9207C23.376 23.9307 23.7607 23.9416 24.0157 23.9884C24.5259 24.082 24.6644 24.2779 24.9228 24.5842C24.988 24.6614 25.0811 24.7095 25.1817 24.7181C25.2824 24.7267 25.3823 24.695 25.4595 24.6299C25.4979 24.5977 25.5294 24.5582 25.5525 24.5137C25.5755 24.4692 25.5895 24.4206 25.5938 24.3707C25.598 24.3208 25.5924 24.2705 25.5772 24.2228C25.562 24.175 25.5376 24.1307 25.5053 24.0925C25.2468 23.7861 24.8684 23.3693 24.1537 23.2382C23.7962 23.1726 23.3924 23.1684 23.0188 23.1586C22.6452 23.1487 22.2933 23.1262 22.1464 23.0845C21.9997 23.0428 21.9936 23.0191 21.921 22.9174C21.8483 22.8157 21.7323 22.6023 21.4765 22.4571C21.2204 22.3119 20.9456 22.2728 20.671 22.2349C20.3964 22.1969 20.1232 22.1737 19.9475 22.1419C19.5965 22.0783 19.5825 22.0371 19.4148 21.8472C19.2472 21.6573 19.0364 21.3801 18.8229 21.0992C18.7926 21.0594 18.7547 21.0259 18.7114 21.0007C18.6682 20.9755 18.6204 20.959 18.5708 20.9523C18.5212 20.9456 18.4707 20.9487 18.4223 20.9615C18.3738 20.9742 18.3284 20.9964 18.2886 21.0267Z" fill="#111019"/>
<path d="M28.4479 16.0901C28.4039 16.0717 28.3567 16.0621 28.3089 16.062C28.2612 16.0619 28.2139 16.0712 28.1698 16.0893C28.1257 16.1075 28.0855 16.1341 28.0517 16.1678C28.0179 16.2015 27.991 16.2415 27.9727 16.2855C27.8316 16.6249 27.7942 16.8074 27.3044 17.0137C26.8147 17.2201 25.7886 17.3836 25.0496 17.5433C24.3106 17.7031 23.8661 17.874 23.4537 18.0335C23.364 18.0684 23.2917 18.1374 23.2528 18.2255C23.214 18.3136 23.2117 18.4135 23.2464 18.5033C23.2636 18.5478 23.2894 18.5885 23.3223 18.623C23.3552 18.6575 23.3946 18.6853 23.4382 18.7046C23.4818 18.7239 23.5288 18.7345 23.5765 18.7356C23.6242 18.7368 23.6716 18.7285 23.7161 18.7113C24.1285 18.5518 24.5087 18.4036 25.2033 18.2534C25.8979 18.1033 26.9143 17.9661 27.5865 17.6828C28.2587 17.3996 28.5023 16.9039 28.6434 16.5645C28.6803 16.4757 28.6804 16.3758 28.6438 16.2869C28.6071 16.1979 28.5367 16.1271 28.4479 16.0901Z" fill="#111019"/>
<path d="M26.3894 11.3157C26.2955 11.2945 26.1971 11.3113 26.1157 11.3626C26.0343 11.4139 25.9765 11.4954 25.9551 11.5892C25.8613 12.0024 25.8023 12.2847 25.4752 12.542C25.148 12.7993 24.4136 13.0634 23.9163 13.2813C23.419 13.4992 23.1761 13.7012 22.9934 13.8589C22.9573 13.8901 22.9277 13.928 22.9062 13.9707C22.8848 14.0133 22.8719 14.0597 22.8684 14.1072C22.8649 14.1548 22.8708 14.2026 22.8858 14.2479C22.9007 14.2932 22.9245 14.3351 22.9556 14.3712C22.9868 14.4073 23.0247 14.437 23.0673 14.4584C23.1099 14.4799 23.1564 14.4927 23.2039 14.4962C23.2515 14.4997 23.2993 14.4938 23.3446 14.4789C23.3899 14.4639 23.4318 14.4402 23.4679 14.409C23.6505 14.2513 23.7726 14.1379 24.2079 13.9472C24.6433 13.7564 25.4083 13.5186 25.9244 13.1126C26.4406 12.7065 26.5698 12.1631 26.6637 11.7499C26.6742 11.7034 26.6754 11.6553 26.6673 11.6083C26.6592 11.5613 26.6419 11.5163 26.6165 11.476C26.591 11.4357 26.5578 11.4008 26.5189 11.3733C26.4799 11.3458 26.4359 11.3262 26.3894 11.3157Z" fill="#111019"/>
<path d="M14.2647 23.9223C14.3511 23.763 14.7785 23.2691 15.1523 23.0747C16.0781 22.5932 16.175 22.3212 15.8287 21.175C15.6494 20.5816 15.6318 20.4492 15.6655 19.9544C15.6821 19.7144 16.1929 18.9818 16.6921 18.4825C17.2254 17.9492 17.3875 17.9151 19.043 17.987C21.2453 18.0827 21.5542 18.0399 21.9683 17.5816C22.322 17.1901 22.4832 16.6109 22.3845 16.0867C22.268 15.4684 22.0193 14.8846 21.7632 14.6285C21.473 14.3383 21.2119 14.2696 19.5567 14.0478C18.4373 13.8978 18.2441 13.8525 17.999 13.6826C17.845 13.5759 17.1875 12.9412 16.5379 12.2722L15.2316 10.887L16.1276 10.8605L16.8704 10.8769L17.3973 11.5622C17.6485 11.8891 17.9345 12.1786 17.9646 12.2636C17.9945 12.3486 18.1231 12.4689 18.2499 12.531C18.3768 12.593 18.6225 12.7179 18.7959 12.8084C19.0876 12.9607 19.229 12.9764 20.6862 13.0188C21.5841 13.045 22.3443 13.0993 22.4547 13.1453C22.5611 13.1896 22.8582 13.3585 23.1148 13.5205C23.4492 13.7317 23.5929 13.8689 23.6221 14.0048C23.6447 14.1091 23.8939 14.9814 24.1764 15.9434L24.6899 17.6925L24.4733 18.0834C24.3265 18.3483 24.1766 18.5133 24.0079 18.5957C23.8711 18.6625 22.9887 18.9411 22.0472 19.2148C18.6432 20.2044 18.6622 20.1919 18.8014 21.3422C18.9041 22.1898 19.0542 22.6873 19.2484 22.8239C19.4186 22.9435 19.5886 22.9935 20.4609 23.1805C20.9624 23.288 21.2488 23.8841 21.4096 24.1206C21.5072 24.2642 18.8772 24.2227 18.8772 24.2227L18.3894 23.6636C17.9971 23.214 17.9185 22.93 17.9141 22.4331C17.9101 22.0184 17.8409 21.8254 17.7819 21.6399C17.7423 21.5153 17.6247 22.017 17.6247 22.5401C17.6247 23.0593 17.6456 23.1446 17.8565 23.4863C17.984 23.6929 17.9 24.1048 17.9 24.1238C17.9 24.1428 14.0991 24.2275 14.1232 24.1832L14.2647 23.9223Z" fill="#111019"/>
<path d="M24.3947 11.7085C25.7168 11.8657 28.208 11.9148 29.4451 11.8915C30.6822 11.8683 30.6656 11.7722 30.7183 11.5475C30.771 11.3227 30.8931 10.9695 30.7548 10.4754C30.6166 9.98136 30.2176 9.34629 29.7257 9.20052C29.2339 9.05476 28.6494 9.39883 28.3229 9.32483C27.9963 9.25083 27.9279 8.75821 27.4377 8.52055C26.9475 8.2829 26.0354 8.30067 25.506 8.59278C24.9766 8.88489 24.8305 9.45103 24.4853 9.68399C24.1402 9.91695 23.5955 9.81692 23.2755 9.98408C22.9556 10.1512 22.861 10.5853 22.8903 10.9354C22.9196 11.2855 23.0725 11.5513 24.3947 11.7085Z" fill="#111019"/>
<path d="M11.9813 11.1223C13.8478 11.1537 17.5803 11.2166 19.4996 11.0523C21.4189 10.888 21.5255 10.4962 21.4723 9.93744C21.4191 9.37865 21.2059 8.65271 20.7956 8.28855C20.3853 7.92439 19.7777 7.92251 19.6069 7.72189C19.4361 7.52126 19.7028 7.12184 19.1817 6.62165C18.6606 6.12147 17.3512 5.52041 16.3575 5.50718C15.3639 5.49395 14.6864 6.0688 14.0401 6.19684C13.3937 6.32488 12.7781 6.00584 12.2247 6.15229C11.6712 6.29874 11.1803 6.9109 11.0613 7.45538C10.9422 7.99986 11.1946 8.47621 11.0727 8.79675C10.9509 9.11729 10.4548 9.28256 10.2327 9.63928C10.0106 9.996 10.0627 10.5436 10.0888 10.8172C10.1148 11.0908 10.1148 11.0908 11.9813 11.1223Z" fill="#111019"/>
<path d="M27.0825 16.194C27.854 16.3677 29.1439 16.4274 29.9765 16.3247C30.8092 16.222 31.185 15.9569 31.2935 15.5368C31.4019 15.1166 31.243 14.5408 30.9494 14.3378C30.6559 14.1348 30.2276 14.3053 30.077 14.2104C29.9263 14.1155 30.0535 13.755 29.7443 13.5299C29.4352 13.3048 28.6892 13.2153 28.2853 13.3614C27.8815 13.5075 27.8203 13.8889 27.5789 13.985C27.3375 14.0811 26.9153 13.8919 26.5892 14.0875C26.2632 14.2831 26.0338 14.8634 26.0459 15.2978C26.0579 15.7321 26.311 16.0203 27.0825 16.194Z" fill="#111019"/>
<path d="M10.4462 17.5611C11.663 17.7694 13.7963 17.5306 14.9229 17.2693C16.0495 17.008 16.1697 16.7239 16.1357 16.2818C16.1018 15.8398 15.9133 15.2396 15.5843 14.9794C15.2554 14.7193 14.7859 14.7999 14.5358 14.6268C14.2857 14.4538 14.2555 14.0267 13.7997 13.8055C13.3439 13.5842 12.4622 13.5692 11.9832 13.8487C11.5043 14.1282 11.4286 14.7017 11.156 14.8292C10.8834 14.9567 10.4135 14.6381 9.95931 14.7656C9.50509 14.893 9.06707 15.4667 8.99824 16.0818C8.92941 16.6968 9.22948 17.3528 10.4462 17.5611Z" fill="#111019"/>
<path d="M14.3563 24.8408C14.428 24.9025 14.8984 24.6606 15.1972 24.6855C15.4961 24.7104 15.6233 25.0015 15.8424 24.9734C16.0615 24.9453 16.3727 24.5984 16.2377 24.3911C16.1027 24.1837 15.5211 24.1159 15.0664 24.2647C14.6118 24.4135 14.2846 24.779 14.3563 24.8408Z" fill="#111019"/>
<path d="M17.7287 24.2461C17.9223 24.4075 17.8149 24.6946 17.6034 24.8029C17.392 24.9112 17.076 24.8408 16.8423 24.8524C16.6086 24.8639 16.4576 24.9577 16.4217 24.8318C16.3857 24.7059 16.465 24.36 16.7525 24.2047C17.04 24.0493 17.5351 24.0847 17.7287 24.2461Z" fill="#111019"/>
<path d="M21.9409 24.8279C21.7809 24.8114 21.4605 24.7784 21.2058 24.7675C20.951 24.7565 20.762 24.7678 20.6237 24.8296C20.4853 24.8914 20.3981 25.0035 20.2849 24.9548C20.1718 24.9061 20.0333 24.6969 20.0078 24.5002C19.9822 24.3034 20.0705 24.1208 20.438 24.1804C20.8055 24.2401 21.454 24.5426 21.7774 24.6935C22.1009 24.8444 22.1009 24.8444 21.9409 24.8279Z" fill="#111019"/>
<path d="M21.1209 23.8411C21.0908 23.8396 21.0606 23.844 21.0322 23.8541C21.0038 23.8643 20.9777 23.88 20.9554 23.9002C20.9331 23.9204 20.915 23.9447 20.9021 23.9718C20.8892 23.9989 20.8817 24.0284 20.8802 24.0584C20.8786 24.0884 20.883 24.1184 20.8931 24.1467C20.9032 24.175 20.9187 24.201 20.9388 24.2234C21.4725 24.8152 22.0195 25.4274 22.7373 25.8429C23.0962 26.0507 23.476 26.1979 23.7941 26.3544C24.1122 26.5109 24.3585 26.6746 24.4853 26.8761C24.7389 27.2793 24.6276 28.099 24.4703 28.9583C24.4649 28.9878 24.4654 29.0182 24.4716 29.0475C24.4779 29.0769 24.4899 29.1048 24.507 29.1295C24.524 29.1542 24.5458 29.1754 24.571 29.1917C24.5962 29.208 24.6244 29.2192 24.654 29.2247C24.6836 29.2301 24.714 29.2296 24.7434 29.2233C24.7728 29.2169 24.8007 29.2049 24.8254 29.1877C24.8502 29.1706 24.8713 29.1488 24.8876 29.1234C24.9039 29.0981 24.915 29.0699 24.9203 29.0402C25.0776 28.1809 25.2803 27.2813 24.8723 26.6326C24.6682 26.3082 24.3393 26.1127 23.9959 25.9438C23.6525 25.7748 23.2842 25.6303 22.9666 25.4465C22.3315 25.0788 21.8122 24.5086 21.2785 23.9168C21.2381 23.8717 21.1814 23.8445 21.1209 23.8411Z" fill="#111019"/>
<path fill-rule="evenodd" clip-rule="evenodd" d="M24.5862 29.595C24.2574 29.5348 24.0394 29.2191 24.0996 28.8903C24.1598 28.5615 24.4754 28.3435 24.8042 28.4037C25.133 28.4638 25.3497 28.7867 25.2909 29.1083C25.2307 29.4371 24.915 29.6551 24.5862 29.595Z" fill="#111019"/>
<path fill-rule="evenodd" clip-rule="evenodd" d="M24.8186 28.3239C24.4469 28.2558 24.0883 28.5038 24.0203 28.8755C23.9522 29.2473 24.2002 29.6066 24.5719 29.6747C24.9437 29.7427 25.3023 29.4948 25.3703 29.123C25.4372 28.7574 25.1915 28.3921 24.8186 28.3239ZM24.7894 28.4831C25.0741 28.5352 25.2619 28.8161 25.2111 29.0938C25.1588 29.3797 24.8861 29.5678 24.6003 29.5155C24.3145 29.4632 24.1264 29.1905 24.1787 28.9047C24.231 28.6189 24.5036 28.4308 24.7894 28.4831Z" fill="#111019"/>
<path fill-rule="evenodd" clip-rule="evenodd" d="M25.0012 27.267C24.7183 27.445 24.3442 27.3598 24.1662 27.0769C23.9882 26.7939 24.0734 26.4199 24.3564 26.2419C24.6393 26.0639 25.0173 26.1553 25.1914 26.432C25.3693 26.715 25.2842 27.0891 25.0012 27.267Z" fill="#111019"/>
<path fill-rule="evenodd" clip-rule="evenodd" d="M24.8328 26.0873C24.6611 26.0475 24.4739 26.0723 24.3135 26.1732C23.9936 26.3744 23.8963 26.7998 24.0975 27.1197C24.2988 27.4396 24.7241 27.5369 25.044 27.3356C25.364 27.1344 25.4612 26.709 25.26 26.3891C25.1611 26.2318 25.0046 26.1271 24.8328 26.0873ZM24.7966 26.2449C24.9281 26.2755 25.0477 26.3555 25.1229 26.475C25.2776 26.721 25.2041 27.0438 24.9582 27.1985C24.7122 27.3532 24.3894 27.2798 24.2347 27.0338C24.08 26.7878 24.1534 26.465 24.3994 26.3103C24.5219 26.2333 24.6651 26.2143 24.7966 26.2449Z" fill="#111019"/>
<path fill-rule="evenodd" clip-rule="evenodd" d="M23.3762 25.9482C23.2088 26.2375 22.838 26.3364 22.5488 26.1689C22.2595 26.0014 22.1606 25.6307 22.3281 25.3415C22.4956 25.0522 22.8726 24.957 23.1556 25.1208C23.4448 25.2883 23.5437 25.659 23.3762 25.9482Z" fill="#111019"/>
<path fill-rule="evenodd" clip-rule="evenodd" d="M22.6774 24.9831C22.5069 25.0279 22.3531 25.1367 22.2581 25.3007C22.0687 25.6278 22.1808 26.0492 22.5079 26.2386C22.835 26.4279 23.2564 26.3158 23.4458 25.9887C23.6351 25.6616 23.523 25.2403 23.1959 25.0509C23.0351 24.9578 22.8479 24.9383 22.6774 24.9831ZM22.7191 25.1392C22.8498 25.105 22.9926 25.1197 23.1148 25.1904C23.3662 25.336 23.4519 25.6561 23.3063 25.9076C23.1607 26.159 22.8406 26.2447 22.5891 26.0991C22.3376 25.9535 22.252 25.6334 22.3976 25.3819C22.4701 25.2567 22.5885 25.1733 22.7191 25.1392Z" fill="#111019"/>
</g>
</g>
</g>
<defs>
<clipPath id="clip0_287_114109">
<rect width="40" height="40" fill="white"/>
</clipPath>
<clipPath id="clip1_287_114109">
<rect width="40" height="40" fill="white"/>
</clipPath>
<clipPath id="clip2_287_114109">
<rect width="40" height="40" fill="white"/>
</clipPath>
</defs>
</svg>

