<svg width="40" height="40" viewBox="0 0 40 40" fill="none" xmlns="http://www.w3.org/2000/svg">
<g clip-path="url(#clip0_1113_76)">
<path d="M18.7501 9.62153C18.7005 9.62911 18.653 9.64637 18.6101 9.67234C18.5672 9.69831 18.5299 9.73247 18.5003 9.77288C18.4706 9.81328 18.4492 9.85913 18.4373 9.90781C18.4254 9.95649 18.4232 10.007 18.4309 10.0566C18.4607 10.2501 18.4756 10.4026 18.4585 10.4916C18.4413 10.5808 18.3893 10.6851 18.2394 10.8636C18.0895 11.0421 17.8083 11.3004 17.6625 11.6903C17.5167 12.08 17.5712 12.4524 17.605 12.7645C17.6103 12.8143 17.6255 12.8625 17.6495 12.9064C17.6735 12.9504 17.7059 12.9891 17.745 13.0205C17.784 13.0519 17.8288 13.0753 17.8768 13.0894C17.9249 13.1035 17.9752 13.108 18.025 13.1026C18.0748 13.0972 18.123 13.0821 18.167 13.0581C18.2109 13.034 18.2497 13.0016 18.2811 12.9626C18.3125 12.9236 18.3359 12.8788 18.3499 12.8307C18.364 12.7827 18.3685 12.7323 18.3631 12.6825C18.3293 12.3704 18.3163 12.1186 18.3765 11.9575C18.4367 11.7965 18.6352 11.5787 18.8234 11.3546C19.0116 11.1305 19.1556 10.9043 19.2072 10.6358C19.2588 10.3671 19.2141 10.1343 19.1843 9.94071C19.169 9.84083 19.1147 9.7511 19.0333 9.69125C18.9519 9.6314 18.85 9.60632 18.7501 9.62153Z" fill="#F8F8F8"/>
<path d="M13.8161 16.633C13.7689 16.6164 13.7188 16.6092 13.6687 16.6119C13.6187 16.6146 13.5697 16.6271 13.5245 16.6488C13.4794 16.6705 13.439 16.7009 13.4056 16.7383C13.3722 16.7756 13.3465 16.8192 13.33 16.8665C13.3134 16.9137 13.3064 16.9638 13.3092 17.0138C13.312 17.0638 13.3247 17.1128 13.3464 17.1579C13.78 18.0589 14.2116 18.9577 14.512 19.4994C14.8124 20.041 15.0106 20.2473 15.1535 20.3868C15.226 20.4573 15.3235 20.4962 15.4245 20.4948C15.5256 20.4935 15.622 20.4521 15.6926 20.3797C15.7632 20.3073 15.8022 20.2099 15.8011 20.1088C15.7999 20.0078 15.7586 19.9113 15.6863 19.8406C15.5433 19.7012 15.4553 19.6276 15.1788 19.129C14.9023 18.6304 14.4672 17.7279 14.0336 16.8269C13.9897 16.736 13.9114 16.6663 13.8161 16.633Z" fill="#F8F8F8"/>
<path d="M10.1336 23.623C10.073 23.6229 10.0149 23.6468 9.97185 23.6895C9.92886 23.7322 9.90456 23.7902 9.9043 23.8508C9.90422 23.8809 9.91009 23.9107 9.92154 23.9385C9.93299 23.9663 9.94979 23.9916 9.97102 24.0129C9.99224 24.0342 10.0175 24.0511 10.0452 24.0626C10.073 24.0742 10.1028 24.0801 10.1328 24.0801L26.4931 24.1085C26.5537 24.1087 26.6119 24.0848 26.6549 24.0421C26.6979 23.9994 26.7222 23.9413 26.7224 23.8808C26.7225 23.8507 26.7167 23.8209 26.7052 23.7931C26.6938 23.7653 26.677 23.74 26.6557 23.7187C26.6345 23.6974 26.6093 23.6805 26.5815 23.6689C26.5537 23.6574 26.524 23.6514 26.4939 23.6514L10.1336 23.623Z" fill="#F8F8F8"/>
<path d="M14.341 23.4649C14.2603 23.4664 14.1835 23.4999 14.1274 23.5579C12.8932 24.84 11.6279 26.1085 11.2532 27.3479C11.0658 27.9675 11.1343 28.5365 11.2351 29.0329C11.3358 29.5292 11.4603 29.9619 11.4502 30.3348C11.43 31.0807 10.8702 31.8881 10.2555 32.7306C10.208 32.796 10.1884 32.8775 10.201 32.9573C10.2135 33.0371 10.2572 33.1086 10.3225 33.1562C10.3877 33.2038 10.4692 33.2235 10.5489 33.2111C10.6287 33.1987 10.7003 33.1551 10.748 33.09C11.3628 32.2475 12.0327 31.3698 12.0602 30.3514C12.074 29.8421 11.9269 29.3724 11.8333 28.9115C11.7397 28.4506 11.6912 28.0072 11.8373 27.5244C12.1292 26.559 13.3322 25.2632 14.5665 23.9811C14.6226 23.9229 14.6533 23.8448 14.6518 23.7639C14.6503 23.6831 14.6168 23.6062 14.5586 23.55C14.5297 23.5222 14.4957 23.5004 14.4583 23.4858C14.421 23.4712 14.3811 23.4641 14.341 23.4649Z" fill="#F8F8F8"/>
<path fill-rule="evenodd" clip-rule="evenodd" d="M10.0268 33.5631C9.66672 33.3004 9.58772 32.795 9.85042 32.435C10.1131 32.0749 10.6185 31.9959 10.9785 32.2586C11.3386 32.5213 11.4119 33.0346 11.1549 33.3868C10.8922 33.7468 10.3868 33.8258 10.0268 33.5631Z" fill="#F8F8F8"/>
<path fill-rule="evenodd" clip-rule="evenodd" d="M10.3614 32.0072C10.1298 32.0434 9.91178 32.167 9.76327 32.3705C9.46623 32.7776 9.55557 33.3526 9.96266 33.6496C10.3697 33.9466 10.9447 33.8565 11.2417 33.4494C11.5338 33.0491 11.4499 32.4691 11.0416 32.1711C10.838 32.0226 10.5931 31.971 10.3614 32.0072ZM10.3945 32.2184C10.5713 32.1908 10.7582 32.2311 10.9147 32.3453C11.2264 32.5727 11.2895 33.0185 11.0676 33.3226C10.8392 33.6355 10.4025 33.7038 10.0895 33.4754C9.77654 33.2471 9.70907 32.8104 9.93744 32.4974C10.0516 32.3409 10.2178 32.246 10.3945 32.2184Z" fill="#F8F8F8"/>
<path fill-rule="evenodd" clip-rule="evenodd" d="M11.7347 31.1497C11.2892 31.1376 10.9375 30.7662 10.9495 30.3207C10.9616 29.8752 11.3329 29.5234 11.7785 29.5355C12.224 29.5475 12.5755 29.9286 12.5637 30.3644C12.5516 30.8099 12.1803 31.1617 11.7347 31.1497Z" fill="#F8F8F8"/>
<path fill-rule="evenodd" clip-rule="evenodd" d="M11.7816 29.4281C11.2778 29.4144 10.8558 29.8141 10.8421 30.3178C10.8285 30.8216 11.2282 31.2436 11.7319 31.2573C12.2357 31.2709 12.6577 30.8712 12.6713 30.3675C12.6847 29.8721 12.2869 29.4418 11.7816 29.4281ZM11.7753 29.6432C12.161 29.6537 12.4664 29.9849 12.4562 30.3612C12.4457 30.7485 12.1247 31.0526 11.7374 31.0421C11.3501 31.0316 11.0468 30.7107 11.0573 30.3234C11.0678 29.9361 11.388 29.6327 11.7753 29.6432Z" fill="#F8F8F8"/>
<path fill-rule="evenodd" clip-rule="evenodd" d="M11.3122 28.2093C10.8856 28.0803 10.644 27.6294 10.773 27.2028C10.902 26.7762 11.3529 26.5346 11.7795 26.6636C12.2061 26.7926 12.4449 27.2528 12.3187 27.6701C12.1897 28.0967 11.7388 28.3383 11.3122 28.2093Z" fill="#F8F8F8"/>
<path fill-rule="evenodd" clip-rule="evenodd" d="M11.8112 26.5606C11.3288 26.4148 10.8159 26.6891 10.67 27.1714C10.5242 27.6538 10.7984 28.166 11.2808 28.3118C11.7632 28.4577 12.2761 28.1834 12.422 27.701C12.5654 27.2267 12.295 26.7069 11.8112 26.5606ZM11.7481 26.7663C12.1175 26.878 12.3244 27.2784 12.2155 27.6388C12.1034 28.0096 11.7147 28.2182 11.3438 28.1061C10.973 27.994 10.7644 27.6045 10.8765 27.2337C10.9886 26.8628 11.3773 26.6542 11.7481 26.7663Z" fill="#F8F8F8"/>
<path d="M24.4262 23.7291C24.3952 23.7545 24.3695 23.7857 24.3506 23.8211C24.3317 23.8564 24.3199 23.8951 24.3159 23.935C24.312 23.9749 24.3159 24.0152 24.3276 24.0536C24.3392 24.0919 24.3583 24.1276 24.3837 24.1586C25.1311 25.0719 25.8342 25.968 25.9599 26.7617C26.0857 27.5556 25.6457 28.4701 25.6573 29.5153C25.6688 30.5605 26.1751 31.5513 26.6503 32.5101C26.6681 32.5461 26.6927 32.5781 26.7229 32.6045C26.7531 32.6309 26.7882 32.6511 26.8262 32.6639C26.8642 32.6767 26.9043 32.6819 26.9443 32.6792C26.9843 32.6765 27.0234 32.6659 27.0593 32.6481C27.1317 32.6121 27.1868 32.549 27.2127 32.4725C27.2385 32.3959 27.233 32.3123 27.1972 32.2398C26.722 31.281 26.2766 30.3534 26.2673 29.5082C26.2579 28.6631 26.7283 27.7162 26.562 26.6663C26.3957 25.6163 25.6032 24.6857 24.8558 23.7724C24.8304 23.7414 24.7992 23.7156 24.7639 23.6966C24.7286 23.6776 24.6899 23.6657 24.65 23.6617C24.6101 23.6577 24.5698 23.6616 24.5314 23.6731C24.493 23.6847 24.4573 23.7037 24.4262 23.7291Z" fill="#F8F8F8"/>
<path fill-rule="evenodd" clip-rule="evenodd" d="M27.2832 33.0978C26.8839 33.2957 26.3991 33.1322 26.2012 32.7328C26.0033 32.3335 26.1668 31.8488 26.5662 31.6509C26.9655 31.453 27.4545 31.6252 27.6481 32.0158C27.846 32.4151 27.6825 32.8999 27.2832 33.0978Z" fill="#F8F8F8"/>
<path fill-rule="evenodd" clip-rule="evenodd" d="M27.2183 31.5111C26.9959 31.4352 26.7442 31.4422 26.5177 31.5544C26.0662 31.7782 25.881 32.3292 26.1047 32.7807C26.3285 33.2323 26.8787 33.4183 27.3302 33.1945C27.7818 32.9707 27.9678 32.4197 27.744 31.9682C27.634 31.7462 27.4408 31.5871 27.2183 31.5111ZM27.149 31.7152C27.3193 31.7735 27.4673 31.8949 27.5509 32.0636C27.723 32.4107 27.582 32.8294 27.2349 33.0014C26.8877 33.1734 26.4691 33.0325 26.297 32.6854C26.125 32.3382 26.2667 31.9196 26.6139 31.7475C26.7867 31.6619 26.9787 31.6569 27.149 31.7152Z" fill="#F8F8F8"/>
<path fill-rule="evenodd" clip-rule="evenodd" d="M25.9706 30.3179C25.525 30.3228 25.1593 29.9651 25.1543 29.5194C25.1494 29.0738 25.5071 28.7081 25.9528 28.7032C26.3984 28.6983 26.7642 29.0656 26.769 29.5016C26.774 29.9472 26.4163 30.3129 25.9706 30.3179Z" fill="#F8F8F8"/>
<path fill-rule="evenodd" clip-rule="evenodd" d="M25.9525 28.5958C25.4486 28.6013 25.0414 29.0171 25.0469 29.521C25.0525 30.0249 25.4683 30.4313 25.9722 30.4257C26.4761 30.4202 26.8825 30.0052 26.8769 29.5013C26.8714 29.0058 26.4579 28.5902 25.9525 28.5958ZM25.9549 28.8117C26.3407 28.8074 26.6576 29.1272 26.6618 29.5037C26.6661 29.8911 26.3573 30.2063 25.9699 30.2106C25.5824 30.2149 25.2672 29.906 25.2629 29.5186C25.2586 29.1312 25.5675 28.816 25.9549 28.8117Z" fill="#F8F8F8"/>
<path fill-rule="evenodd" clip-rule="evenodd" d="M26.387 27.511C25.9468 27.5807 25.5329 27.28 25.4632 26.8398C25.3934 26.3996 25.6941 25.9858 26.1343 25.9161C26.5745 25.8463 26.9899 26.1566 27.0581 26.5872C27.1278 27.0274 26.8271 27.4412 26.387 27.511Z" fill="#F8F8F8"/>
<path fill-rule="evenodd" clip-rule="evenodd" d="M26.1175 25.81C25.6198 25.8888 25.2782 26.3589 25.357 26.8566C25.4359 27.3543 25.9067 27.696 26.4044 27.6171C26.9021 27.5383 27.2438 27.0682 27.1649 26.5705C27.0874 26.0811 26.6168 25.7309 26.1175 25.81ZM26.1514 26.0228C26.5326 25.9624 26.8932 26.2326 26.9521 26.6044C27.0128 26.9871 26.7532 27.3437 26.3705 27.4043C25.9879 27.465 25.6304 27.2054 25.5698 26.8227C25.5092 26.44 25.7688 26.0834 26.1514 26.0228Z" fill="#F8F8F8"/>
<path d="M18.9183 23.5748C18.8782 23.577 18.839 23.5872 18.8029 23.6046C18.7668 23.6221 18.7345 23.6465 18.7078 23.6764C18.6812 23.7064 18.6607 23.7414 18.6476 23.7793C18.6345 23.8172 18.629 23.8573 18.6314 23.8974C18.6338 23.9374 18.6441 23.9766 18.6617 24.0126C18.6793 24.0487 18.7038 24.0809 18.7339 24.1075C19.3716 24.6728 19.934 25.2089 20.0216 25.7625C20.1093 26.3163 19.7184 27.172 19.6985 28.1647C19.6786 29.1573 20.0569 30.111 20.0555 31.0271C20.0539 31.9432 19.6933 32.943 19.3139 33.9699C19.2859 34.0457 19.2892 34.1296 19.323 34.2031C19.3569 34.2765 19.4185 34.3335 19.4944 34.3615C19.5703 34.3895 19.6541 34.3862 19.7276 34.3524C19.801 34.3186 19.8581 34.2569 19.8861 34.1811C20.2655 33.1541 20.6638 32.0994 20.6655 31.0286C20.6671 29.9578 20.2922 28.9917 20.3085 28.1773C20.3248 27.3629 20.7603 26.5249 20.6245 25.6672C20.4887 24.8093 19.7767 24.2165 19.139 23.6512C19.109 23.6246 19.0741 23.6041 19.0362 23.591C18.9984 23.5779 18.9583 23.5724 18.9183 23.5748Z" fill="#F8F8F8"/>
<path fill-rule="evenodd" clip-rule="evenodd" d="M19.3207 34.8345C18.9026 34.68 18.6887 34.2153 18.8432 33.7973C18.9976 33.3792 19.4623 33.1653 19.8803 33.3197C20.2984 33.4742 20.509 33.9479 20.3579 34.3569C20.2034 34.7749 19.7388 34.9889 19.3207 34.8345Z" fill="#F8F8F8"/>
<path fill-rule="evenodd" clip-rule="evenodd" d="M19.918 33.2188C19.4453 33.0441 18.9168 33.2867 18.7421 33.7594C18.5675 34.2321 18.8108 34.7606 19.2835 34.9353C19.7562 35.1099 20.284 34.8665 20.4586 34.3938C20.6303 33.929 20.3921 33.394 19.918 33.2188ZM19.8431 33.4205C20.2051 33.5543 20.3873 33.9666 20.2569 34.3198C20.1226 34.6832 19.7218 34.8678 19.3584 34.7335C18.995 34.5993 18.8096 34.1977 18.9439 33.8343C19.0781 33.4709 19.4797 33.2863 19.8431 33.4205Z" fill="#F8F8F8"/>
<path fill-rule="evenodd" clip-rule="evenodd" d="M20.3589 31.8355C19.9132 31.8347 19.552 31.4725 19.5527 31.0268C19.5535 30.5812 19.9157 30.22 20.3614 30.2207C20.8071 30.2215 21.1682 30.5934 21.1675 31.0293C21.1667 31.475 20.8045 31.8362 20.3589 31.8355Z" fill="#F8F8F8"/>
<path fill-rule="evenodd" clip-rule="evenodd" d="M20.3619 30.1133C19.858 30.1125 19.4462 30.5228 19.4453 31.0267C19.4445 31.5306 19.8548 31.9423 20.3587 31.9433C20.8626 31.9441 21.2744 31.5337 21.2753 31.0298C21.2761 30.5343 20.8673 30.1142 20.3619 30.1133ZM20.3611 30.3284C20.747 30.3292 21.0607 30.6526 21.0601 31.0291C21.0593 31.4165 20.7469 31.7287 20.3595 31.7281C19.972 31.7273 19.6598 31.4149 19.6604 31.0275C19.6612 30.64 19.9736 30.3278 20.3611 30.3284Z" fill="#F8F8F8"/>
<path fill-rule="evenodd" clip-rule="evenodd" d="M19.9865 28.9779C19.5409 28.969 19.1865 28.6001 19.1955 28.1545C19.2044 27.7089 19.5733 27.3545 20.0189 27.3634C20.4645 27.3724 20.8187 27.751 20.8099 28.1869C20.801 28.6325 20.4321 28.9869 19.9865 28.9779Z" fill="#F8F8F8"/>
<path fill-rule="evenodd" clip-rule="evenodd" d="M20.0212 27.256C19.5174 27.246 19.0982 27.6491 19.0881 28.1529C19.0779 28.6567 19.4803 29.0759 19.9842 29.086C20.488 29.0962 20.9079 28.693 20.9181 28.1892C20.928 27.6937 20.5266 27.2662 20.0212 27.256ZM20.0172 27.4712C20.403 27.4789 20.7096 27.8088 20.702 28.1852C20.6942 28.5726 20.3761 28.8786 19.9888 28.8709C19.6014 28.8631 19.2954 28.5442 19.3031 28.1568C19.3109 27.7695 19.6298 27.4634 20.0172 27.4712Z" fill="#F8F8F8"/>
<path fill-rule="evenodd" clip-rule="evenodd" d="M20.4494 26.5129C20.0092 26.5826 19.5953 26.2819 19.5257 25.8417C19.456 25.4015 19.7567 24.9877 20.1969 24.918C20.6371 24.8483 21.0524 25.1586 21.1206 25.5892C21.1903 26.0294 20.8896 26.4432 20.4494 26.5129Z" fill="#F8F8F8"/>
<path fill-rule="evenodd" clip-rule="evenodd" d="M20.18 24.8119C19.6823 24.8907 19.3407 25.3608 19.4195 25.8585C19.4983 26.3563 19.9684 26.6979 20.4661 26.6191C20.9638 26.5403 21.3054 26.0702 21.2266 25.5725C21.1492 25.083 20.6793 24.7329 20.18 24.8119ZM20.2139 25.0247C20.595 24.9644 20.955 25.2345 21.0138 25.6063C21.0744 25.989 20.8149 26.3465 20.4322 26.4071C20.0495 26.4676 19.6929 26.2073 19.6323 25.8247C19.5717 25.442 19.8312 25.0853 20.2139 25.0247Z" fill="#F8F8F8"/>
<path d="M16.3888 23.6587C15.5547 24.2568 14.6131 24.9198 14.4729 26.101C14.3327 27.2822 14.9404 28.7276 15.0104 30.1172C15.0803 31.5068 14.6554 32.9266 14.2144 34.3785C14.2027 34.4168 14.1987 34.4571 14.2026 34.497C14.2065 34.5369 14.2183 34.5756 14.2372 34.6109C14.256 34.6463 14.2817 34.6776 14.3127 34.703C14.3437 34.7284 14.3793 34.7475 14.4177 34.7591C14.456 34.7708 14.4963 34.7748 14.5362 34.7709C14.5761 34.767 14.6148 34.7552 14.6502 34.7363C14.6855 34.7175 14.7168 34.6918 14.7422 34.6608C14.7677 34.6298 14.7867 34.5942 14.7984 34.5558C15.2394 33.1039 15.6967 31.6187 15.6196 30.0865C15.5424 28.5542 14.9736 27.0602 15.0789 26.1727C15.1843 25.2853 15.9101 24.7526 16.7442 24.1544C16.8099 24.1073 16.8542 24.0359 16.8674 23.9561C16.8805 23.8763 16.8615 23.7946 16.8143 23.7288C16.7672 23.6631 16.6959 23.6188 16.6161 23.6056C16.5363 23.5925 16.4545 23.6116 16.3888 23.6587Z" fill="#F8F8F8"/>
<path fill-rule="evenodd" clip-rule="evenodd" d="M14.2721 35.2403C13.8457 35.1107 13.6047 34.6595 13.7342 34.2331C13.8638 33.8066 14.315 33.5657 14.7414 33.6952C15.1679 33.8247 15.406 34.2852 15.2793 34.7024C15.1498 35.1288 14.6986 35.3698 14.2721 35.2403Z" fill="#F8F8F8"/>
<path fill-rule="evenodd" clip-rule="evenodd" d="M14.7725 33.5922C14.2903 33.4458 13.7778 33.7193 13.6313 34.2014C13.4849 34.6836 13.7583 35.1962 14.2405 35.3426C14.7227 35.4891 15.2352 35.2156 15.3817 34.7334C15.5257 34.2593 15.2561 33.7391 14.7725 33.5922ZM14.7102 33.7979C15.0794 33.9101 15.2854 34.311 15.176 34.6712C15.0634 35.0419 14.6735 35.2495 14.3028 35.1369C13.9321 35.0243 13.7244 34.6344 13.837 34.2637C13.9496 33.893 14.3395 33.6853 14.7102 33.7979Z" fill="#F8F8F8"/>
<path fill-rule="evenodd" clip-rule="evenodd" d="M15.3558 30.9087C14.9107 30.9311 14.5313 30.588 14.5088 30.1429C14.4865 29.6978 14.8295 29.3183 15.2746 29.2959C15.7197 29.2735 16.0997 29.6263 16.1216 30.0617C16.144 30.5068 15.8009 30.8863 15.3558 30.9087Z" fill="#F8F8F8"/>
<path fill-rule="evenodd" clip-rule="evenodd" d="M15.2693 29.1886C14.766 29.214 14.3762 29.6453 14.4016 30.1486C14.4269 30.6518 14.8582 31.0416 15.3615 31.0163C15.8648 30.9909 16.2545 30.5604 16.2292 30.0571C16.2043 29.5622 15.7741 29.1632 15.2693 29.1886ZM15.2803 29.4038C15.6657 29.3844 15.9951 29.6914 16.014 30.0674C16.0334 30.4543 15.7374 30.7824 15.3504 30.8019C14.9635 30.8213 14.6362 30.5253 14.6167 30.1383C14.5972 29.7514 14.8933 29.4233 15.2803 29.4038Z" fill="#F8F8F8"/>
<path fill-rule="evenodd" clip-rule="evenodd" d="M14.681 26.9393C14.2385 26.8868 13.9219 26.4849 13.9745 26.0424C14.027 25.5998 14.4288 25.2832 14.8714 25.3358C15.314 25.3883 15.6294 25.7998 15.578 26.2327C15.5254 26.6753 15.1236 26.9918 14.681 26.9393Z" fill="#F8F8F8"/>
<path fill-rule="evenodd" clip-rule="evenodd" d="M14.8844 25.2291C14.384 25.1697 13.9271 25.5294 13.8677 26.0298C13.8083 26.5302 14.168 26.987 14.6685 27.0464C15.1689 27.1059 15.6257 26.7461 15.6851 26.2457C15.7435 25.7537 15.3864 25.2887 14.8844 25.2291ZM14.8592 25.4427C15.2424 25.4881 15.5159 25.8459 15.4715 26.2197C15.4259 26.6045 15.0792 26.8778 14.6945 26.8321C14.3097 26.7864 14.0364 26.4397 14.0821 26.055C14.1278 25.6703 14.4745 25.397 14.8592 25.4427Z" fill="#F8F8F8"/>
<path d="M26.5278 26.4379C26.5047 26.4186 26.4781 26.4041 26.4494 26.3952C26.4207 26.3862 26.3906 26.383 26.3606 26.3857C26.3307 26.3884 26.3016 26.397 26.2749 26.4109C26.2483 26.4249 26.2247 26.444 26.2055 26.4671C26.1862 26.4902 26.1717 26.5168 26.1627 26.5455C26.1538 26.5742 26.1506 26.6044 26.1533 26.6343C26.156 26.6642 26.1646 26.6933 26.1785 26.72C26.1925 26.7466 26.2116 26.7702 26.2347 26.7894C26.9898 27.4194 27.7263 28.0425 28.1143 28.6919C28.5023 29.3414 28.5861 30.0738 28.6699 30.8466C28.6765 30.9069 28.7068 30.9621 28.7541 31.0001C28.8014 31.038 28.8618 31.0557 28.9221 31.0491C28.9824 31.0425 29.0376 31.0123 29.0756 30.965C29.1136 30.9177 29.1312 30.8572 29.1247 30.7969C29.0408 30.0241 28.957 29.2105 28.5068 28.457C28.0566 27.7035 27.283 27.0678 26.5278 26.4379Z" fill="#F8F8F8"/>
<path fill-rule="evenodd" clip-rule="evenodd" d="M28.9619 31.4224C28.6296 31.4584 28.3306 31.218 28.2946 30.8857C28.2586 30.5534 28.499 30.2544 28.8313 30.2183C29.1636 30.1823 29.4634 30.4299 29.4986 30.755C29.5347 31.0873 29.2942 31.3863 28.9619 31.4224Z" fill="#F8F8F8"/>
<path fill-rule="evenodd" clip-rule="evenodd" d="M28.8226 30.1387C28.4469 30.1795 28.1742 30.5196 28.215 30.8953C28.2557 31.2711 28.595 31.5445 28.9708 31.5037C29.3465 31.463 29.62 31.1229 29.5792 30.7472C29.5391 30.3777 29.1995 30.0978 28.8226 30.1387ZM28.8407 30.2995C29.1284 30.2683 29.388 30.4838 29.4184 30.7645C29.4498 31.0534 29.2423 31.3116 28.9534 31.343C28.6645 31.3743 28.4063 31.1669 28.375 30.878C28.3436 30.5891 28.5518 30.3309 28.8407 30.2995Z" fill="#F8F8F8"/>
<path fill-rule="evenodd" clip-rule="evenodd" d="M28.6212 29.0927C28.3343 29.2642 27.9623 29.1704 27.7908 28.8835C27.6194 28.5965 27.7131 28.2245 28.0001 28.0531C28.287 27.8816 28.6628 27.9816 28.8305 28.2623C29.0019 28.5493 28.9082 28.9213 28.6212 29.0927Z" fill="#F8F8F8"/>
<path fill-rule="evenodd" clip-rule="evenodd" d="M28.4799 27.9107C28.3092 27.867 28.1217 27.8868 27.959 27.984C27.6345 28.1778 27.5279 28.6013 27.7218 28.9258C27.9156 29.2502 28.3383 29.3568 28.6628 29.163C28.9872 28.9691 29.0938 28.5457 28.9 28.2212C28.8047 28.0617 28.6507 27.9544 28.4799 27.9107ZM28.4405 28.0667C28.5713 28.1004 28.6889 28.1828 28.7613 28.304C28.9103 28.5534 28.8295 28.8753 28.58 29.0243C28.3306 29.1733 28.0095 29.0925 27.8605 28.843C27.7115 28.5936 27.7923 28.2717 28.0418 28.1227C28.166 28.0485 28.3098 28.0332 28.4405 28.0667Z" fill="#F8F8F8"/>
<path d="M25.9081 29.3538C25.8487 29.3423 25.7872 29.3548 25.7371 29.3884C24.8985 29.9532 24.0126 30.5311 23.6446 31.4359C23.2767 32.3407 23.4762 33.4367 23.6525 34.4993C23.6624 34.559 23.6956 34.6124 23.7448 34.6477C23.794 34.683 23.8552 34.6974 23.9149 34.6877C23.9446 34.6828 23.973 34.6721 23.9985 34.6562C24.024 34.6403 24.0462 34.6195 24.0637 34.5951C24.0812 34.5706 24.0937 34.543 24.1005 34.5137C24.1073 34.4844 24.1082 34.4541 24.1033 34.4244C23.927 33.3619 23.7736 32.3321 24.0678 31.6085C24.3621 30.885 25.1538 30.333 25.9924 29.7683C26.0426 29.7343 26.0774 29.6818 26.0889 29.6222C26.1004 29.5627 26.0878 29.501 26.0538 29.4507C26.02 29.4003 25.9676 29.3655 25.9081 29.3538Z" fill="#F8F8F8"/>
<path fill-rule="evenodd" clip-rule="evenodd" d="M23.9762 35.0602C23.6465 35.1149 23.3344 34.8917 23.2797 34.562C23.225 34.2322 23.4482 33.9202 23.778 33.8655C24.1077 33.8108 24.421 34.0411 24.4745 34.3637C24.5292 34.6935 24.306 35.0055 23.9762 35.0602Z" fill="#F8F8F8"/>
<path fill-rule="evenodd" clip-rule="evenodd" d="M23.765 33.7845C23.3921 33.8464 23.1388 34.2014 23.2007 34.5742C23.2626 34.9471 23.6168 35.2012 23.9896 35.1393C24.3625 35.0774 24.6165 34.7225 24.5547 34.3496C24.4938 33.983 24.139 33.7225 23.765 33.7845ZM23.7918 33.9445C24.0773 33.8972 24.3493 34.0971 24.3955 34.3756C24.443 34.6623 24.2502 34.9317 23.9636 34.9793C23.6769 35.0269 23.4075 34.8341 23.3599 34.5474C23.3123 34.2608 23.5051 33.9921 23.7918 33.9445Z" fill="#F8F8F8"/>
<path fill-rule="evenodd" clip-rule="evenodd" d="M23.6275 32.0826C23.3179 31.9567 23.1688 31.6032 23.2947 31.2936C23.4207 30.9839 23.7742 30.8348 24.0838 30.9607C24.3934 31.0867 24.5398 31.4469 24.4166 31.7498C24.2907 32.0594 23.9372 32.2085 23.6275 32.0826Z" fill="#F8F8F8"/>
<path fill-rule="evenodd" clip-rule="evenodd" d="M24.1149 30.8864C23.7648 30.7441 23.3628 30.9131 23.2204 31.2632C23.078 31.6133 23.2471 32.0153 23.5971 32.1577C23.9473 32.3 24.3493 32.1303 24.4916 31.7802C24.6317 31.4359 24.4661 31.0293 24.1149 30.8864ZM24.0535 31.0354C24.3215 31.1444 24.4483 31.4579 24.3419 31.7195C24.2324 31.9886 23.9278 32.1174 23.6586 32.0079C23.3894 31.8985 23.2607 31.593 23.3702 31.3238C23.4796 31.0547 23.7843 30.9259 24.0535 31.0354Z" fill="#F8F8F8"/>
<path d="M19.8755 25.3361C19.8459 25.3305 19.8155 25.3307 19.786 25.3368C19.7566 25.3428 19.7286 25.3547 19.7037 25.3716C19.6535 25.4057 19.619 25.4583 19.6076 25.5179C19.5962 25.5774 19.6089 25.639 19.643 25.6892C20.5197 26.9851 21.396 28.2804 22.2721 29.5754C22.3061 29.6256 22.3586 29.6603 22.4182 29.6719C22.4777 29.6834 22.5394 29.6708 22.5897 29.6368C22.6398 29.6027 22.6744 29.5501 22.6858 29.4906C22.6971 29.431 22.6844 29.3694 22.6504 29.3192C21.7743 28.0242 20.898 26.729 20.0213 25.4331C19.9874 25.3827 19.935 25.3478 19.8755 25.3361Z" fill="#F8F8F8"/>
<path fill-rule="evenodd" clip-rule="evenodd" d="M22.8003 29.9492C22.5235 30.1365 22.1467 30.0639 21.9594 29.787C21.7721 29.5102 21.8448 29.1335 22.1217 28.9461C22.3985 28.7588 22.7793 28.8375 22.9625 29.1084C23.1498 29.3852 23.0772 29.7619 22.8003 29.9492Z" fill="#F8F8F8"/>
<path fill-rule="evenodd" clip-rule="evenodd" d="M22.5927 28.7749C22.4198 28.7408 22.2335 28.7721 22.0765 28.8781C21.7635 29.0899 21.6811 29.5179 21.8929 29.8309C22.1047 30.144 22.5327 30.2271 22.8457 30.0154C23.1588 29.8036 23.2411 29.3756 23.0293 29.0625C22.9252 28.9086 22.7657 28.8089 22.5927 28.7749ZM22.562 28.9341C22.6944 28.9603 22.817 29.0355 22.8961 29.1524C23.059 29.3931 22.9958 29.7186 22.7551 29.8814C22.5144 30.0442 22.1897 29.9818 22.0269 29.7411C21.864 29.5004 21.9265 29.1749 22.1671 29.0121C22.287 28.931 22.4295 28.9079 22.562 28.9341Z" fill="#F8F8F8"/>
<path d="M19.5653 28.0164C19.5059 28.0042 19.4441 28.0161 19.3934 28.0495C18.685 28.5154 17.9329 29.0034 17.4776 29.8519C17.0222 30.7003 16.8925 31.8285 16.7557 32.9373C16.7519 32.9672 16.7541 32.9975 16.7622 33.0265C16.7702 33.0555 16.7838 33.0826 16.8024 33.1063C16.8209 33.1301 16.8439 33.1499 16.8701 33.1647C16.8963 33.1795 16.9252 33.189 16.9551 33.1926C17.0151 33.1999 17.0756 33.1831 17.1233 33.1459C17.171 33.1087 17.2021 33.0541 17.2096 32.994C17.3464 31.8853 17.4909 30.7956 17.8811 30.0686C18.2713 29.3416 18.9364 28.8976 19.6449 28.4317C19.6955 28.3984 19.7309 28.3462 19.7432 28.2868C19.7554 28.2274 19.7436 28.1656 19.7103 28.1149C19.6938 28.0897 19.6724 28.0681 19.6476 28.0512C19.6227 28.0343 19.5947 28.0225 19.5653 28.0164Z" fill="#F8F8F8"/>
<path fill-rule="evenodd" clip-rule="evenodd" d="M16.9084 33.566C16.5767 33.525 16.3406 33.2226 16.3816 32.8908C16.4225 32.5591 16.725 32.3231 17.0567 32.364C17.3884 32.4049 17.6236 32.7146 17.5835 33.0391C17.5426 33.3709 17.2402 33.6069 16.9084 33.566Z" fill="#F8F8F8"/>
<path fill-rule="evenodd" clip-rule="evenodd" d="M17.0673 32.2845C16.6922 32.2382 16.3483 32.506 16.3021 32.8811C16.2558 33.2562 16.5243 33.6001 16.8994 33.6463C17.2745 33.6926 17.6184 33.4248 17.6647 33.0497C17.7102 32.6809 17.4436 32.3309 17.0673 32.2845ZM17.0476 32.4445C17.3348 32.4799 17.5385 32.7498 17.5039 33.03C17.4683 33.3184 17.2075 33.5219 16.9191 33.4864C16.6308 33.4508 16.4265 33.1892 16.462 32.9008C16.4976 32.6124 16.7592 32.4089 17.0476 32.4445Z" fill="#F8F8F8"/>
<path fill-rule="evenodd" clip-rule="evenodd" d="M17.3935 30.4927C17.0989 30.3346 16.9882 29.9673 17.1463 29.6728C17.3043 29.3782 17.6717 29.2675 17.9662 29.4256C18.2607 29.5836 18.368 29.9573 18.2134 30.2455C18.0553 30.54 17.688 30.6507 17.3935 30.4927Z" fill="#F8F8F8"/>
<path fill-rule="evenodd" clip-rule="evenodd" d="M17.4822 29.3029C17.3138 29.3536 17.1649 29.4689 17.0755 29.6354C16.8968 29.9685 17.0223 30.3859 17.3553 30.5646C17.6883 30.7433 18.1058 30.6171 18.2845 30.284C18.4602 29.9566 18.3388 29.5342 18.0047 29.3549C17.8382 29.2655 17.6505 29.2521 17.4822 29.3029ZM17.5287 29.4565C17.6572 29.4178 17.8002 29.4288 17.9283 29.4975C18.1833 29.6344 18.2761 29.9588 18.1426 30.2076C18.0052 30.4636 17.6878 30.5594 17.4318 30.422C17.1757 30.2846 17.08 29.9671 17.2174 29.7111C17.2861 29.5831 17.4002 29.4953 17.5287 29.4565Z" fill="#F8F8F8"/>
<path d="M19.6732 30.8926C19.6137 30.9038 19.561 30.938 19.5266 30.988C19.5096 31.0128 19.4976 31.0407 19.4913 31.0701C19.4851 31.0995 19.4847 31.1299 19.4902 31.1594C19.4957 31.189 19.5069 31.2172 19.5233 31.2424C19.5397 31.2677 19.5609 31.2894 19.5858 31.3064C20.2946 31.793 20.9525 32.2628 21.1809 32.8818C21.4093 33.5009 21.2517 34.4109 21.0698 35.3494C21.0583 35.4089 21.0709 35.4706 21.1049 35.5209C21.1389 35.5711 21.1915 35.6058 21.251 35.6173C21.3106 35.6288 21.3723 35.6162 21.4225 35.5822C21.4728 35.5482 21.5075 35.4956 21.519 35.4361C21.701 34.4976 21.907 33.5293 21.6096 32.7234C21.3122 31.9174 20.5539 31.4155 19.845 30.9289C19.8202 30.9118 19.7922 30.8998 19.7628 30.8936C19.7333 30.8874 19.7029 30.8871 19.6732 30.8926Z" fill="#F8F8F8"/>
<path fill-rule="evenodd" clip-rule="evenodd" d="M21.1779 35.9872C20.8497 35.9236 20.635 35.6056 20.6987 35.2775C20.7623 34.9493 21.0803 34.7347 21.4084 34.7983C21.7366 34.8619 21.9498 35.187 21.8876 35.508C21.824 35.8362 21.506 36.0509 21.1779 35.9872Z" fill="#F8F8F8"/>
<path fill-rule="evenodd" clip-rule="evenodd" d="M21.4247 34.7196C21.0536 34.6477 20.692 34.8916 20.62 35.2626C20.5481 35.6337 20.792 35.9953 21.163 36.0673C21.534 36.1392 21.8957 35.8953 21.9677 35.5243C22.0384 35.1594 21.7968 34.7918 21.4247 34.7196ZM21.3939 34.878C21.678 34.9331 21.863 35.2164 21.8093 35.4935C21.7539 35.7788 21.479 35.9642 21.1937 35.9089C20.9085 35.8535 20.7231 35.5786 20.7784 35.2934C20.8337 35.0081 21.1087 34.8227 21.3939 34.878Z" fill="#F8F8F8"/>
<path fill-rule="evenodd" clip-rule="evenodd" d="M21.6043 33.3703C21.2907 33.486 20.9423 33.3254 20.8266 33.0118C20.7109 32.6982 20.8715 32.3498 21.1851 32.2341C21.4987 32.1184 21.8496 32.2858 21.9628 32.5926C22.0785 32.9061 21.9179 33.2546 21.6043 33.3703Z" fill="#F8F8F8"/>
<path fill-rule="evenodd" clip-rule="evenodd" d="M21.158 32.1591C20.8034 32.2899 20.6205 32.6856 20.7513 33.0402C20.8821 33.3948 21.2786 33.5777 21.6332 33.4469C21.9878 33.316 22.1699 32.9195 22.0391 32.565C21.9104 32.2163 21.5136 32.0279 21.158 32.1591ZM21.2139 32.3104C21.4854 32.2102 21.79 32.356 21.8877 32.6209C21.9883 32.8935 21.8498 33.195 21.5772 33.2955C21.3046 33.3961 21.0032 33.2568 20.9026 32.9842C20.802 32.7116 20.9413 32.411 21.2139 32.3104Z" fill="#F8F8F8"/>
<path d="M14.2263 25.9249C14.1718 25.8987 14.109 25.8952 14.0518 25.9151C13.9947 25.9351 13.9477 25.9768 13.9213 26.0313C13.9082 26.0584 13.9006 26.0878 13.8988 26.1178C13.8971 26.1478 13.9013 26.1779 13.9111 26.2063C13.921 26.2347 13.9364 26.2609 13.9564 26.2833C13.9764 26.3058 14.0006 26.324 14.0277 26.3371C15.0287 26.8182 16.0296 27.2988 17.0296 27.7794C17.0843 27.8055 17.1471 27.809 17.2043 27.7889C17.2615 27.7688 17.3083 27.7268 17.3346 27.6722C17.3609 27.6176 17.3644 27.5549 17.3444 27.4977C17.3245 27.4405 17.2827 27.3936 17.2282 27.3672C16.2282 26.8866 15.2274 26.406 14.2263 25.9249Z" fill="#F8F8F8"/>
<path fill-rule="evenodd" clip-rule="evenodd" d="M17.6749 27.8353C17.5301 28.1366 17.168 28.2636 16.8668 28.1188C16.5655 27.974 16.4385 27.612 16.5833 27.3107C16.7281 27.0094 17.0966 26.8856 17.3914 27.0272C17.6926 27.172 17.8196 27.534 17.6749 27.8353Z" fill="#F8F8F8"/>
<path fill-rule="evenodd" clip-rule="evenodd" d="M16.9049 26.9271C16.7383 26.9848 16.5929 27.1054 16.5108 27.2762C16.3471 27.6169 16.4917 28.0283 16.8324 28.192C17.173 28.3557 17.5844 28.2119 17.7481 27.8713C17.9119 27.5306 17.7672 27.1192 17.4266 26.9555C17.2591 26.875 17.0714 26.8694 16.9049 26.9271ZM16.9577 27.08C17.0853 27.0359 17.2292 27.0393 17.3565 27.1005C17.6184 27.2264 17.7282 27.5392 17.6023 27.8011C17.4765 28.063 17.1636 28.1729 16.9017 28.047C16.6398 27.9211 16.5308 27.6083 16.6566 27.3464C16.7193 27.216 16.8301 27.1241 16.9577 27.08Z" fill="#F8F8F8"/>
<path d="M10.6337 27.1858C9.60494 27.7447 8.56029 28.3002 7.93598 29.004C7.31168 29.7078 7.17702 30.5129 7.05015 31.2564C7.03993 31.3162 7.05386 31.3776 7.08889 31.4271C7.12391 31.4766 7.17716 31.5101 7.23693 31.5204C7.29671 31.5306 7.35809 31.5167 7.4076 31.4817C7.45711 31.4466 7.49068 31.3934 7.50094 31.3336C7.62782 30.5902 7.74635 29.9068 8.27801 29.3074C8.80966 28.7081 9.82324 28.1466 10.852 27.5878C10.8784 27.5734 10.9017 27.554 10.9206 27.5306C10.9394 27.5072 10.9535 27.4803 10.962 27.4515C10.9705 27.4226 10.9733 27.3924 10.9701 27.3625C10.9669 27.3326 10.9578 27.3036 10.9434 27.2773C10.9144 27.2241 10.8655 27.1847 10.8074 27.1676C10.7494 27.1504 10.6869 27.157 10.6337 27.1858Z" fill="#F8F8F8"/>
<path fill-rule="evenodd" clip-rule="evenodd" d="M7.17171 31.892C6.84221 31.8358 6.62045 31.5227 6.67668 31.1932C6.73291 30.8637 7.04596 30.6419 7.37546 30.6982C7.70496 30.7544 7.92552 31.0746 7.87051 31.3969C7.81428 31.7264 7.50121 31.9482 7.17171 31.892Z" fill="#F8F8F8"/>
<path fill-rule="evenodd" clip-rule="evenodd" d="M7.38975 30.6192C7.01719 30.5556 6.66128 30.8078 6.5977 31.1803C6.53412 31.5529 6.78627 31.9088 7.15883 31.9724C7.53139 32.0359 7.8873 31.7838 7.95088 31.4112C8.0134 31.0449 7.76346 30.683 7.38975 30.6192ZM7.36295 30.7784C7.64823 30.8271 7.83917 31.1061 7.79168 31.3844C7.7428 31.6709 7.47285 31.862 7.18642 31.8132C6.89998 31.7643 6.70802 31.4943 6.7569 31.2079C6.80578 30.9215 7.07652 30.7295 7.36295 30.7784Z" fill="#F8F8F8"/>
<path fill-rule="evenodd" clip-rule="evenodd" d="M7.70362 29.6092C7.45356 29.3874 7.43065 29.0045 7.65246 28.7544C7.87428 28.5043 8.25723 28.4814 8.50728 28.7032C8.75734 28.9251 8.77545 29.3135 8.55846 29.5581C8.33665 29.8081 7.95367 29.8311 7.70362 29.6092Z" fill="#F8F8F8"/>
<path fill-rule="evenodd" clip-rule="evenodd" d="M8.06452 28.4719C7.88901 28.4824 7.71785 28.5599 7.59245 28.7013C7.34164 28.984 7.36724 29.4191 7.64998 29.6699C7.93272 29.9207 8.36854 29.8951 8.61935 29.6123C8.86597 29.3343 8.84464 28.8945 8.56103 28.643C8.41966 28.5176 8.24003 28.4614 8.06452 28.4719ZM8.07395 28.6327C8.20789 28.6247 8.34513 28.6679 8.45382 28.7643C8.67032 28.9564 8.68531 29.2939 8.49795 29.5051C8.30513 29.7225 7.97451 29.7421 7.75713 29.5493C7.53976 29.3565 7.52018 29.0258 7.713 28.8085C7.80941 28.6998 7.94001 28.6407 8.07395 28.6327Z" fill="#F8F8F8"/>
<path d="M17.8501 20.6052C17.8102 20.6355 17.7767 20.6733 17.7514 20.7166C17.7261 20.7598 17.7096 20.8076 17.7028 20.8572C17.6959 20.9068 17.699 20.9573 17.7117 21.0058C17.7244 21.0542 17.7465 21.0997 17.7768 21.1396C17.9903 21.4204 18.206 21.7047 18.4049 21.93C18.6038 22.1553 18.8963 22.3843 19.3727 22.4707C19.6108 22.5138 19.8815 22.5352 20.1277 22.5692C20.3739 22.6032 20.5968 22.6627 20.6613 22.6992C20.7259 22.7359 20.7537 22.788 20.8615 22.9388C20.9692 23.0896 21.18 23.3059 21.4998 23.3967C21.8194 23.4874 22.1821 23.4892 22.5598 23.4991C22.9375 23.5092 23.3222 23.5201 23.5773 23.5669C24.0875 23.6605 24.2259 23.8564 24.4844 24.1627C24.5495 24.2399 24.6426 24.288 24.7433 24.2966C24.8439 24.3051 24.9438 24.2734 25.0211 24.2084C25.0594 24.1762 25.091 24.1367 25.114 24.0922C25.137 24.0477 25.1511 23.9991 25.1553 23.9492C25.1596 23.8992 25.1539 23.849 25.1387 23.8012C25.1235 23.7535 25.0991 23.7092 25.0668 23.671C24.8083 23.3646 24.4299 22.9478 23.7152 22.8166C23.3577 22.7511 22.9539 22.7469 22.5803 22.737C22.2067 22.7272 21.8548 22.7047 21.7079 22.663C21.5612 22.6213 21.5551 22.5975 21.4825 22.4959C21.4098 22.3942 21.2938 22.1808 21.038 22.0356C20.782 21.8904 20.5071 21.8513 20.2325 21.8134C19.958 21.7754 19.6847 21.7522 19.5091 21.7204C19.158 21.6567 19.144 21.6156 18.9763 21.4256C18.8087 21.2358 18.5979 20.9586 18.3844 20.6777C18.3541 20.6379 18.3162 20.6044 18.273 20.5792C18.2297 20.554 18.1819 20.5375 18.1323 20.5308C18.0827 20.5241 18.0322 20.5272 17.9838 20.5399C17.9354 20.5527 17.89 20.5749 17.8501 20.6052Z" fill="#F8F8F8"/>
<path d="M28.0112 15.6687C27.9671 15.6503 27.9199 15.6408 27.8722 15.6406C27.8245 15.6405 27.7772 15.6498 27.733 15.6679C27.6889 15.6861 27.6488 15.7127 27.615 15.7464C27.5811 15.7801 27.5543 15.8201 27.5359 15.8641C27.3949 16.2035 27.3574 16.386 26.8676 16.5923C26.3779 16.7987 25.3518 16.9622 24.6128 17.122C23.8739 17.2817 23.4293 17.4526 23.0169 17.6122C22.9272 17.647 22.8549 17.716 22.8161 17.8041C22.7772 17.8922 22.7749 17.9921 22.8097 18.0819C22.8268 18.1264 22.8526 18.1671 22.8855 18.2016C22.9184 18.2362 22.9578 18.2639 23.0014 18.2832C23.045 18.3025 23.092 18.3131 23.1397 18.3142C23.1874 18.3154 23.2349 18.3071 23.2794 18.2899C23.6917 18.1304 24.0719 17.9822 24.7665 17.832C25.4611 17.6819 26.4775 17.5447 27.1498 17.2614C27.8219 16.9782 28.0656 16.4825 28.2066 16.1431C28.2435 16.0543 28.2437 15.9544 28.207 15.8655C28.1704 15.7765 28.0999 15.7058 28.0112 15.6687Z" fill="#F8F8F8"/>
<path d="M25.9516 10.8937C25.8578 10.8725 25.7594 10.8894 25.6779 10.9406C25.5965 10.9919 25.5388 11.0734 25.5174 11.1672C25.4236 11.5804 25.3645 11.8627 25.0374 12.12C24.7103 12.3774 23.9759 12.6414 23.4786 12.8593C22.9812 13.0772 22.7383 13.2792 22.5557 13.4369C22.5196 13.4681 22.4899 13.506 22.4685 13.5487C22.447 13.5913 22.4342 13.6377 22.4307 13.6852C22.4272 13.7328 22.433 13.7806 22.448 13.8259C22.463 13.8712 22.4867 13.9131 22.5179 13.9492C22.549 13.9853 22.587 14.015 22.6296 14.0364C22.6722 14.0579 22.7186 14.0707 22.7662 14.0742C22.8138 14.0777 22.8615 14.0718 22.9068 14.0569C22.9521 14.0419 22.994 14.0182 23.0301 13.987C23.2128 13.8293 23.3349 13.7159 23.7702 13.5252C24.2055 13.3345 24.9705 13.0966 25.4867 12.6906C26.0029 12.2845 26.1321 11.7411 26.2259 11.3279C26.2364 11.2814 26.2377 11.2333 26.2296 11.1863C26.2215 11.1393 26.2042 11.0944 26.1787 11.054C26.1533 11.0137 26.1201 10.9788 26.0811 10.9513C26.0422 10.9238 25.9981 10.9042 25.9516 10.8937Z" fill="#F8F8F8"/>
<path d="M13.8272 23.5013C13.9136 23.342 14.341 22.8481 14.7148 22.6537C15.6406 22.1721 15.7375 21.9002 15.3912 20.754C15.2119 20.1605 15.1943 20.0282 15.228 19.5334C15.2446 19.2934 15.7554 18.5608 16.2546 18.0615C16.7879 17.5282 16.95 17.4941 18.6055 17.566C20.8078 17.6617 21.1167 17.6189 21.5308 17.1606C21.8845 16.7691 22.0457 16.1899 21.947 15.6657C21.8305 15.0474 21.5818 14.4636 21.3257 14.2075C21.0355 13.9173 20.7744 13.8485 19.1192 13.6268C17.9998 13.4768 17.8066 13.4315 17.5615 13.2616C17.4075 13.1549 16.75 12.5202 16.1004 11.8512L14.7941 10.466L15.6901 10.4395L16.4329 10.4559L16.9598 11.1412C17.211 11.468 17.497 11.7576 17.5271 11.8426C17.557 11.9276 17.6856 12.0479 17.8124 12.1099C17.9393 12.172 18.185 12.2969 18.3584 12.3874C18.6501 12.5397 18.7915 12.5554 20.2487 12.5978C21.1466 12.624 21.9068 12.6783 22.0172 12.7242C22.1236 12.7686 22.4207 12.9375 22.6773 13.0995C23.0117 13.3107 23.1554 13.4479 23.1846 13.5838C23.2072 13.688 23.4564 14.5604 23.7389 15.5224L24.2524 17.2715L24.0358 17.6623C23.889 17.9273 23.7391 18.0923 23.5704 18.1746C23.4336 18.2414 22.5512 18.52 21.6097 18.7938C18.2057 19.7833 18.2247 19.7709 18.3639 20.9212C18.4666 21.7687 18.6167 22.2663 18.8109 22.4029C18.9811 22.5225 19.1511 22.5725 20.0234 22.7595C20.5249 22.867 20.8113 23.4631 20.9721 23.6996C21.0697 23.8432 18.4397 23.8017 18.4397 23.8017L17.9519 23.2426C17.5596 22.7929 17.481 22.509 17.4766 22.0121C17.4726 21.5974 17.4034 21.4044 17.3444 21.2189C17.3048 21.0942 17.1872 21.596 17.1872 22.1191C17.1872 22.6383 17.2081 22.7236 17.419 23.0653C17.5465 23.2719 17.4625 23.6837 17.4625 23.7028C17.4625 23.7218 13.6616 23.8065 13.6857 23.7621L13.8272 23.5013Z" fill="#F8F8F8"/>
<path d="M23.9567 11.2875C25.2788 11.4447 27.77 11.4937 29.0071 11.4705C30.2442 11.4473 30.2277 11.3512 30.2803 11.1265C30.333 10.9017 30.4551 10.5485 30.3168 10.0544C30.1786 9.56034 29.7796 8.92527 29.2878 8.7795C28.7959 8.63374 28.2114 8.97781 27.8849 8.90381C27.5584 8.82981 27.4899 8.33719 26.9997 8.09953C26.5095 7.86188 25.5974 7.87965 25.068 8.17176C24.5386 8.46387 24.3925 9.03001 24.0474 9.26297C23.7022 9.49593 23.1575 9.3959 22.8375 9.56306C22.5176 9.73022 22.423 10.1643 22.4523 10.5144C22.4816 10.8644 22.6345 11.1303 23.9567 11.2875Z" fill="#F8F8F8"/>
<path d="M11.544 10.7012C13.4105 10.7327 17.143 10.7956 19.0623 10.6313C20.9817 10.467 21.0882 10.0752 21.035 9.51642C20.9818 8.95763 20.7687 8.23169 20.3584 7.86753C19.9481 7.50337 19.3404 7.50149 19.1696 7.30086C18.9989 7.10024 19.2655 6.70082 18.7444 6.20063C18.2233 5.70045 16.9139 5.09939 15.9203 5.08616C14.9266 5.07293 14.2492 5.64778 13.6028 5.77582C12.9565 5.90386 12.3409 5.58482 11.7874 5.73127C11.2339 5.87772 10.7431 6.48988 10.624 7.03436C10.5049 7.57884 10.7573 8.05519 10.6355 8.37573C10.5136 8.69627 10.0175 8.86154 9.79544 9.21826C9.57334 9.57498 9.62548 10.1226 9.65151 10.3962C9.67754 10.6698 9.67756 10.6698 11.544 10.7012Z" fill="#F8F8F8"/>
<path d="M26.6445 15.773C27.416 15.9467 28.7059 16.0064 29.5385 15.9037C30.3712 15.8009 30.747 15.5359 30.8555 15.1157C30.9639 14.6956 30.805 14.1198 30.5114 13.9168C30.2179 13.7138 29.7897 13.8842 29.639 13.7893C29.4883 13.6944 29.6155 13.334 29.3063 13.1089C28.9972 12.8838 28.2512 12.7943 27.8473 12.9404C27.4435 13.0865 27.3823 13.4679 27.1409 13.564C26.8995 13.66 26.4773 13.4709 26.1513 13.6665C25.8252 13.8621 25.5958 14.4424 25.6079 14.8767C25.6199 15.3111 25.873 15.5992 26.6445 15.773Z" fill="#F8F8F8"/>
<path d="M10.008 17.1387C11.2248 17.3471 13.3581 17.1083 14.4847 16.8469C15.6112 16.5856 15.7315 16.3015 15.6975 15.8595C15.6635 15.4174 15.475 14.8172 15.1461 14.5571C14.8172 14.2969 14.3476 14.3775 14.0976 14.2045C13.8475 14.0314 13.8173 13.6043 13.3615 13.3831C12.9057 13.1618 12.0239 13.1469 11.545 13.4263C11.0661 13.7058 10.9903 14.2793 10.7178 14.4068C10.4452 14.5343 9.9753 14.2158 9.52108 14.3432C9.06686 14.4707 8.62884 15.0444 8.56001 15.6594C8.49118 16.2744 8.79125 16.9304 10.008 17.1387Z" fill="#F8F8F8"/>
<path d="M13.9181 24.4179C13.9898 24.4797 14.4601 24.2378 14.759 24.2627C15.0578 24.2875 15.1851 24.5786 15.4041 24.5505C15.6232 24.5224 15.9345 24.1756 15.7995 23.9682C15.6645 23.7609 15.0828 23.693 14.6282 23.8418C14.1735 23.9907 13.8464 24.3562 13.9181 24.4179Z" fill="#F8F8F8"/>
<path d="M17.2917 23.8248C17.4853 23.9862 17.3778 24.2734 17.1664 24.3817C16.955 24.49 16.639 24.4195 16.4053 24.4311C16.1716 24.4427 16.0206 24.5364 15.9846 24.4106C15.9487 24.2847 16.028 23.9388 16.3155 23.7834C16.603 23.628 17.0981 23.6634 17.2917 23.8248Z" fill="#F8F8F8"/>
<path d="M21.5036 24.4051C21.3437 24.3886 21.0233 24.3556 20.7685 24.3446C20.5138 24.3337 20.3248 24.345 20.1864 24.4068C20.048 24.4686 19.9608 24.5806 19.8477 24.5319C19.7345 24.4832 19.596 24.274 19.5705 24.0773C19.545 23.8806 19.6333 23.6979 20.0008 23.7576C20.3683 23.8172 21.0167 24.1197 21.3402 24.2707C21.6636 24.4216 21.6636 24.4216 21.5036 24.4051Z" fill="#F8F8F8"/>
<path d="M20.241 23.0003C20.2109 22.9988 20.1808 23.0032 20.1524 23.0133C20.1239 23.0235 20.0978 23.0391 20.0755 23.0594C20.0532 23.0795 20.0351 23.1039 20.0222 23.131C20.0093 23.1581 20.0018 23.1875 20.0003 23.2175C19.9988 23.2475 20.0032 23.2776 20.0132 23.3059C20.0233 23.3342 20.0388 23.3602 20.059 23.3825C20.5926 23.9744 21.1397 24.5866 21.8574 25.0021C22.2163 25.2098 22.5962 25.3571 22.9143 25.5136C23.2324 25.67 23.4786 25.8337 23.6054 26.0353C23.8591 26.4385 23.7477 27.2581 23.5905 28.1175C23.585 28.147 23.5855 28.1773 23.5918 28.2067C23.5981 28.2361 23.6101 28.2639 23.6271 28.2887C23.6442 28.3134 23.6659 28.3346 23.6911 28.3509C23.7164 28.3672 23.7445 28.3784 23.7741 28.3838C23.8037 28.3893 23.8341 28.3888 23.8635 28.3825C23.8929 28.3761 23.9208 28.364 23.9455 28.3469C23.9703 28.3298 23.9914 28.3079 24.0077 28.2826C24.024 28.2573 24.0351 28.229 24.0405 28.1994C24.1977 27.3401 24.4004 26.4405 23.9924 25.7918C23.7883 25.4673 23.4595 25.2719 23.116 25.103C22.7726 24.934 22.4043 24.7895 22.0868 24.6057C21.4516 24.238 20.9323 23.6678 20.3986 23.076C20.3582 23.0309 20.3015 23.0037 20.241 23.0003Z" fill="#F8F8F8"/>
<path fill-rule="evenodd" clip-rule="evenodd" d="M24.1509 29.1739C23.8221 29.1138 23.6041 28.7981 23.6643 28.4693C23.7244 28.1405 24.0401 27.9225 24.3689 27.9826C24.6977 28.0428 24.9144 28.3656 24.8556 28.6873C24.7954 29.0161 24.4797 29.2341 24.1509 29.1739Z" fill="#F8F8F8"/>
<path fill-rule="evenodd" clip-rule="evenodd" d="M24.3838 27.9019C24.012 27.8338 23.6535 28.0818 23.5855 28.4535C23.5174 28.8253 23.7654 29.1846 24.1371 29.2527C24.5089 29.3207 24.8674 29.0728 24.9355 28.701C25.0024 28.3354 24.7567 27.9701 24.3838 27.9019ZM24.3546 28.0611C24.6393 28.1132 24.8271 28.3941 24.7763 28.6718C24.724 28.9577 24.4513 29.1458 24.1655 29.0935C23.8796 29.0412 23.6915 28.7685 23.7438 28.4827C23.7961 28.1969 24.0688 28.0088 24.3546 28.0611Z" fill="#F8F8F8"/>
<path fill-rule="evenodd" clip-rule="evenodd" d="M24.5647 26.8452C24.2817 27.0231 23.9077 26.9379 23.7297 26.655C23.5517 26.3721 23.6369 25.998 23.9198 25.82C24.2028 25.642 24.5807 25.7334 24.7548 26.0102C24.9328 26.2931 24.8476 26.6672 24.5647 26.8452Z" fill="#F8F8F8"/>
<path fill-rule="evenodd" clip-rule="evenodd" d="M24.3968 25.6645C24.2251 25.6248 24.0379 25.6495 23.8774 25.7505C23.5575 25.9517 23.4603 26.377 23.6615 26.697C23.8627 27.0169 24.2881 27.1141 24.608 26.9129C24.9279 26.7117 25.0252 26.2863 24.824 25.9664C24.725 25.8091 24.5685 25.7043 24.3968 25.6645ZM24.3606 25.8222C24.4921 25.8528 24.6117 25.9328 24.6868 26.0523C24.8416 26.2983 24.7681 26.6211 24.5221 26.7758C24.2762 26.9305 23.9534 26.857 23.7987 26.6111C23.6439 26.3651 23.7174 26.0423 23.9634 25.8876C24.0859 25.8105 24.2291 25.7916 24.3606 25.8222Z" fill="#F8F8F8"/>
<path fill-rule="evenodd" clip-rule="evenodd" d="M22.9402 25.5245C22.7727 25.8138 22.402 25.9127 22.1127 25.7452C21.8234 25.5777 21.7246 25.207 21.8921 24.9178C22.0595 24.6285 22.4365 24.5333 22.7195 24.6971C23.0088 24.8645 23.1077 25.2352 22.9402 25.5245Z" fill="#F8F8F8"/>
<path fill-rule="evenodd" clip-rule="evenodd" d="M22.2418 24.5601C22.0713 24.6049 21.9175 24.7137 21.8226 24.8777C21.6332 25.2048 21.7453 25.6262 22.0724 25.8156C22.3995 26.0049 22.8209 25.8929 23.0102 25.5658C23.1996 25.2387 23.0875 24.8173 22.7604 24.6279C22.5996 24.5348 22.4123 24.5154 22.2418 24.5601ZM22.2836 24.7162C22.4142 24.682 22.557 24.6967 22.6792 24.7674C22.9307 24.913 23.0163 25.2331 22.8707 25.4846C22.7251 25.7361 22.405 25.8217 22.1536 25.6761C21.9021 25.5305 21.8165 25.2104 21.962 24.9589C22.0345 24.8337 22.153 24.7504 22.2836 24.7162Z" fill="#F8F8F8"/>
</g>
<defs>
<clipPath id="clip0_1113_76">
<rect width="40" height="40" fill="white" transform="translate(-0.4375 -0.421875)"/>
</clipPath>
</defs>
</svg>
